<?xml version="1.0" encoding="UTF-8" standalone="no"?>
<svg
   xmlns:dc="http://purl.org/dc/elements/1.1/"
   xmlns:cc="http://creativecommons.org/ns#"
   xmlns:rdf="http://www.w3.org/1999/02/22-rdf-syntax-ns#"
   xmlns:svg="http://www.w3.org/2000/svg"
   xmlns="http://www.w3.org/2000/svg"
   xmlns:sodipodi="http://sodipodi.sourceforge.net/DTD/sodipodi-0.dtd"
   xmlns:inkscape="http://www.inkscape.org/namespaces/inkscape"
   version="1.1"
   width="425.1282"
   height="308.01282"
   viewBox="0 0 425.1282 308.01282"
   id="svg2"
   inkscape:version="0.91 r13725"
   sodipodi:docname="computer.svg">
  <sodipodi:namedview
     pagecolor="#ffffff"
     bordercolor="#666666"
     borderopacity="1"
     objecttolerance="10"
     gridtolerance="10"
     guidetolerance="10"
     inkscape:pageopacity="0"
     inkscape:pageshadow="2"
     inkscape:window-width="1366"
     inkscape:window-height="711"
     id="namedview82"
     showgrid="false"
     fit-margin-top="0"
     fit-margin-left="0"
     fit-margin-right="0"
     fit-margin-bottom="0"
     inkscape:zoom="0.472"
     inkscape:cx="84.6319"
     inkscape:cy="175.4487"
     inkscape:window-x="0"
     inkscape:window-y="27"
     inkscape:window-maximized="1"
     inkscape:current-layer="svg2" />
  <defs
     id="defs4" />
  <metadata
     id="metadata7">
    <rdf:RDF>
      <cc:Work
         rdf:about="">
        <dc:format>image/svg+xml</dc:format>
        <dc:type
           rdf:resource="http://purl.org/dc/dcmitype/StillImage" />
        <dc:title></dc:title>
      </cc:Work>
    </rdf:RDF>
  </metadata>
  <path
     d="m 348.46154,69.23077 c -3.07693,0 -5.38462,-2.3077 -5.38462,-5.38463 0,-3.07691 2.5641,-5.3846 5.38462,-5.3846 3.07692,0 5.38461,2.30769 5.38461,5.3846 0,2.82052 -2.5641,5.38463 -5.38461,5.38463 z m 0,-10.51282 c -2.82052,0 -4.8718,2.30768 -4.8718,4.87179 0,2.82051 2.30769,4.8718 4.8718,4.8718 2.82051,0 4.87179,-2.3077 4.87179,-4.8718 0,-2.56411 -2.30769,-4.87179 -4.87179,-4.87179 z"
     id="path11"
     style="opacity:0.34000017;fill:#ffffff"
     inkscape:connector-curvature="0" />
  <path
     d="m 342.5641,86.15384 c 0,6.41026 -5.12821,11.53846 -11.53846,11.53846 -6.41026,0 -11.53846,-5.1282 -11.53846,-11.53846 0,-6.41025 5.1282,-11.53846 11.53846,-11.53846 6.41025,0 11.53846,5.12821 11.53846,11.53846 z"
     id="path25"
     style="fill:#19b4ca"
     inkscape:connector-curvature="0" />
  <path
     d="m 61.538463,83.07692 c 0,4.61537 -3.84615,8.20513 -8.46154,8.20513 -4.61538,0 -8.20513,-3.84615 -8.20513,-8.46154 0,-4.61538 3.84616,-8.20514 8.46154,-8.20514 4.35898,0.25641 8.20513,3.84617 8.20513,8.46155 z"
     id="path27"
     style="fill:#19b4ca"
     inkscape:connector-curvature="0" />
  <path
     d="m 121.53846,97.94871 c 0,4.61539 -3.84615,8.20513 -8.20513,8.20513 -4.61538,0 -8.46154,-3.84615 -8.20513,-8.46154 0,-4.61538 3.84616,-8.20512 8.46154,-8.20512 4.10257,0 7.94872,3.84615 7.94872,8.46153 z"
     id="path29"
     style="fill:#19b4ca"
     inkscape:connector-curvature="0" />
  <path
     d="m 180.51282,68.71795 c 0,4.61537 -3.84616,8.20511 -8.46154,8.20511 -4.61539,0 -8.20513,-3.84614 -8.20513,-8.20511 0,-4.6154 3.84616,-8.20514 8.20513,-8.20514 4.61538,-0.25641 8.46154,3.58974 8.46154,8.20514 z"
     id="path31"
     style="fill:#19b4ca"
     inkscape:connector-curvature="0" />
  <path
     d="m 226.92307,80.2564 c 0,4.61538 -3.84615,8.20514 -8.46153,8.20514 -4.61539,0 -8.20513,-3.84617 -8.20513,-8.46154 0,-4.6154 3.84615,-8.20514 8.46154,-8.20514 4.35897,0 8.20512,3.84615 8.20512,8.46154 z"
     id="path33"
     style="fill:#19b4ca"
     inkscape:connector-curvature="0" />
  <path
     d="m 278.46154,57.69231 c 0,4.61538 -3.84616,8.20512 -8.46154,8.20512 -4.61539,0 -8.20513,-3.84615 -8.20513,-8.46155 0,-4.61537 3.84615,-8.20511 8.46154,-8.20511 4.61538,0 8.20513,3.84615 8.20513,8.46154 z"
     id="path35"
     style="fill:#19b4ca"
     inkscape:connector-curvature="0" />
  <path
     d="m 126.41025,276.15384 0,-60.76924 c 0,-12.05128 10,-22.05128 22.05129,-22.05128 l 70.51282,0 c 12.30769,0 22.05128,10 22.05128,22.05128 l 0,60.51283 -114.61539,0 z"
     id="path37"
     style="fill:#839ca5"
     inkscape:connector-curvature="0" />
  <path
     d="m 282.05128,281.28205 c 0,1.02564 -16.92308,1.79487 -37.69231,1.79487 l -120.76923,0 c -20.76923,0 -37.692307,-0.76923 -37.692307,-1.79487 l 0,-5.12821 c 0,-1.02564 16.923077,-1.79487 37.692307,-1.79487 l 120.76923,0 c 20.76923,0 37.69231,0.76923 37.69231,1.79487 l 0,5.12821 z"
     id="path39"
     style="fill:#dfecef"
     inkscape:connector-curvature="0" />
  <path
     d="M 352.82051,250 14.871795,250 C 6.666667,250 0.256411,243.33333 0.256411,235.3846 l 0,-215.1282 c 0,-8.20513 6.666666,-14.61539 14.615384,-14.61539 l 337.948715,0 c 8.20513,0 14.61538,6.66667 14.61538,14.61539 l 0,214.8718 c 0,8.20513 -6.66666,14.8718 -14.61538,14.8718 z"
     id="path41"
     style="fill:#dfecef"
     inkscape:connector-curvature="0" />
  <path
     d="M 347.69231,5.64102 20,5.64102 c -7.948718,0 -14.358974,6.15385 -14.358974,13.58975 l 0,197.69229 356.153844,0 0,-197.69229 c 0,-7.69231 -6.15385,-13.58975 -14.10256,-13.58975 z"
     id="path45"
     style="fill:#ffffff"
     inkscape:connector-curvature="0" />
  <path
     d="M 367.69231,222.5641 0,222.5641 0,19.23077 C 0,8.46154 8.974359,0 20,0 l 327.69231,0 c 11.02564,0 20,8.71795 20,19.23077 l 0,203.33333 z m -356.153848,-11.53847 344.615378,0 0,-191.79486 c 0,-4.35898 -3.84615,-7.69231 -8.46153,-7.69231 L 20,11.53846 c -4.615384,0 -8.461538,3.33333 -8.461538,7.69231 l 0,191.79486 z"
     id="path49"
     style="fill:#0c454e"
     inkscape:connector-curvature="0" />
  <path
     d="m 26.153843,26.41026 2.05128,0 0,133.07691 -2.05128,0 z"
     id="rect53"
     style="fill:#81ccb5"
     inkscape:connector-curvature="0" />
  <path
     d="m 27.181883,157.47252 263.333337,0.44036 -0.004,2.30769 -263.333337,-0.44036 z"
     id="rect55"
     style="fill:#81ccb5"
     inkscape:connector-curvature="0" />
  <path
     d="M 27.179493,114.35897 74.358973,97.6923 27.179493,114.35897 Z"
     id="path61"
     style="fill:#19b4ca"
     inkscape:connector-curvature="0" />
  <path
     d="m 27.435903,115.1282 -0.51282,-1.53846 47.6923,-16.92308 0.25641,1.79487 z"
     id="polygon63"
     style="fill:#19b4ca"
     inkscape:connector-curvature="0" />
  <path
     d="M 74.358973,97.6923 130.25641,111.53846 74.358973,97.6923 Z"
     id="path67"
     style="fill:#19b4ca"
     inkscape:connector-curvature="0" />
  <path
     d="m 130.76923,112.05128 -56.410257,-13.58974 0.25641,-1.79487 55.897437,13.84615 z"
     id="polygon69"
     style="fill:#19b4ca"
     inkscape:connector-curvature="0" />
  <path
     d="M 130.25641,111.28205 185.1282,84.10256 130.25641,111.28205 Z"
     id="path73"
     style="fill:#19b4ca"
     inkscape:connector-curvature="0" />
  <path
     d="M 130.76923,112.05128 130,110.51282 l 55.38462,-27.17949 0.25641,1.53847 z"
     id="polygon75"
     style="fill:#19b4ca"
     inkscape:connector-curvature="0" />
  <path
     d="M 185.38461,84.10256 228.71795,94.87179 185.38461,84.10256 Z"
     id="path79"
     style="fill:#19b4ca"
     inkscape:connector-curvature="0" />
  <path
     d="m 228.97436,95.64103 -43.84615,-10.76923 0.25641,-1.53847 43.33333,10.76924 z"
     id="polygon81"
     style="fill:#19b4ca"
     inkscape:connector-curvature="0" />
  <path
     d="M 228.46154,94.87179 276.66666,73.84615 228.46154,94.87179 Z"
     id="path85"
     style="fill:#19b4ca"
     inkscape:connector-curvature="0" />
  <path
     d="m 228.97436,95.64103 -0.76923,-1.53846 47.94872,-21.02565 0.76923,1.79488 z"
     id="polygon87"
     style="fill:#19b4ca"
     inkscape:connector-curvature="0" />
  <path
     d="m 138.20513,76.15384 c 0,4.35898 -3.58975,7.69231 -7.69231,7.69231 -4.35898,0 -7.69231,-3.58974 -7.69231,-7.69231 0,-4.35897 3.58974,-7.6923 7.69231,-7.6923 4.10256,0 7.69231,3.58974 7.69231,7.6923 z"
     id="path89"
     style="fill:#91c740"
     inkscape:connector-curvature="0" />
  <path
     d="m 236.41025,66.15384 c 0,4.35898 -3.58974,7.69231 -7.6923,7.69231 -4.35898,0 -7.69231,-3.58974 -7.69231,-7.69231 0,-4.35897 3.58974,-7.6923 7.69231,-7.6923 4.10256,0 7.6923,3.33333 7.6923,7.6923 z"
     id="path91"
     style="fill:#91c740"
     inkscape:connector-curvature="0" />
  <path
     d="m 312.5641,50.76923 c 0,4.35897 -3.58974,7.69231 -7.69231,7.69231 -4.35897,0 -7.69231,-3.58975 -7.69231,-7.69231 0,-4.35898 3.58975,-7.69231 7.69231,-7.69231 4.35898,0 7.69231,3.33333 7.69231,7.69231 z"
     id="path93"
     style="fill:#91c740"
     inkscape:connector-curvature="0" />
  <path
     d="m 75.384613,131.79487 -2.05128,-2.05128 56.153847,-54.35897 2.05128,1.79487 z"
     id="polygon95"
     style="fill:#91c740"
     inkscape:connector-curvature="0" />
  <path
     d="m 189.48718,128.46154 -60,-51.02564 1.79487,-2.30769 58.46154,50.25641 z"
     id="polygon97"
     style="fill:#91c740"
     inkscape:connector-curvature="0" />
  <path
     d="m 189.48718,128.46154 -2.05128,-1.79487 40,-61.28205 2.30769,1.53846 z"
     id="polygon99"
     style="fill:#91c740"
     inkscape:connector-curvature="0" />
  <path
     d="m 228.71795,67.4359 -0.51282,-2.82051 76.41026,-15.38462 0.51282,2.82051 z"
     id="polygon101"
     style="fill:#91c740"
     inkscape:connector-curvature="0" />
  <path
     d="m 75.384613,131.79487 -48.20512,0.25641 0,-2.82051 47.17948,0 z"
     id="polygon103"
     style="fill:#91c740"
     inkscape:connector-curvature="0" />
  <path
     d="m 44.358973,192.82052 -17.17948,0 0,-16.92309 17.17948,0 z"
     id="polygon105"
     style="fill:#b5b6b6"
     inkscape:connector-curvature="0" />
  <path
     d="M 182.30769,190.2564 55.641023,190 l 0,-8.46154 126.666667,0.2564 z"
     id="polygon107"
     style="fill:#b5b6b6"
     inkscape:connector-curvature="0" />
  <path
     d="m 211.28205,190.2564 -17.69231,0 0,-8.46154 17.69231,0 z"
     id="polygon109"
     style="fill:#b5b6b6"
     inkscape:connector-curvature="0" />
  <path
     d="m 295.12821,190 -69.48718,0 0,-8.20514 69.48718,0.25641 z"
     id="polygon111"
     style="fill:#b5b6b6"
     inkscape:connector-curvature="0" />
  <path
     d="m 256.66667,217.69231 -25.12821,0 0,3.07692 25.12821,0 z"
     id="polygon113"
     style="fill:#b5b6b6"
     inkscape:connector-curvature="0" />
  <path
     d="m 254.10257,254.10257 -20,0 0,-11.28205 20,0 z"
     id="polygon115"
     style="fill:#b5b6b6"
     inkscape:connector-curvature="0" />
  <path
     d="m 318.71795,254.10257 -20.25641,0 0,-11.28205 20.25641,0 z"
     id="polygon117"
     style="fill:#b5b6b6"
     inkscape:connector-curvature="0" />
  <path
     d="m 408.97436,300.51282 -128.97436,0 c -8.97436,0 -16.15385,-7.17949 -16.15385,-16.15385 l 0,-172.05128 c 0,-8.97437 7.17949,-16.15386 16.15385,-16.15386 l 128.97436,0 c 8.97436,0 16.15384,7.17949 16.15384,16.15386 l 0,172.05128 c -0.25641,8.97436 -7.43589,16.15385 -16.15384,16.15385 z"
     id="path119"
     style="fill:#103345"
     inkscape:connector-curvature="0" />
  <path
     d="m 282.05125,117.69231 124.35897,0 0,161.28206 -124.35897,0 z"
     id="rect121"
     style="fill:#ffffff"
     inkscape:connector-curvature="0" />
  <path
     d="m 349.74359,289.74359 c 0,3.07692 -2.56411,5.64102 -5.64103,5.64102 -3.07692,0 -5.64102,-2.5641 -5.64102,-5.64102 0,-3.07693 2.5641,-5.64103 5.64102,-5.64103 3.33333,0 5.64103,2.5641 5.64103,5.64103 z"
     id="path123"
     style="fill:#ffffff"
     inkscape:connector-curvature="0" />
  <path
     d="m 363.58974,107.4359 c 0,1.28205 -1.28205,2.5641 -2.82051,2.5641 l -32.5641,0 c -1.53847,0 -2.82052,-1.02564 -2.82052,-2.5641 l 0,0 c 0,-1.28206 1.28205,-2.56411 2.82052,-2.56411 l 32.30769,0 c 1.79487,0 3.07692,1.02564 3.07692,2.56411 l 0,0 z"
     id="path125"
     style="fill:#ffffff"
     inkscape:connector-curvature="0" />
  <path
     d="m 313.07692,133.84614 67.6923,0 0,4.8718 -67.6923,0 z"
     id="rect127"
     style="fill:#91c740"
     inkscape:connector-curvature="0" />
  <path
     d="m 357.94872,208.46154 c 0,0 0,0.25641 0,0.25641 l 19.74359,4.10256 c 0.25641,-1.53846 0.51282,-2.82051 0.51282,-4.35897 0,-14.8718 -9.23077,-27.69231 -22.05129,-33.07693 L 350,195.1282 c 4.61538,2.5641 7.94872,7.4359 7.94872,13.33334 z"
     id="path131"
     style="fill:#19b4ca"
     inkscape:connector-curvature="0" />
  <path
     d="m 361.28205,238.20513 c 7.17949,-4.61539 12.82051,-11.53847 15.1282,-19.74359 l -19.74359,-4.10257 c -1.28205,3.07692 -3.58974,5.64103 -6.41025,7.43589 l 11.02564,16.41026 z"
     id="path133"
     style="fill:#1d5776"
     inkscape:connector-curvature="0" />
  <path
     d="m 334.10256,195.3846 c 2.5641,-1.53846 5.12821,-2.82051 8.20513,-2.82051 0.76923,0 1.53846,0.25641 2.05128,0.51283 l 6.15385,-19.48718 c -2.5641,-0.51282 -5.38462,-1.02564 -8.20513,-1.02564 -8.20513,0 -15.64103,2.82051 -21.53846,7.4359 l 13.33333,15.3846 z"
     id="path137"
     style="fill:#91c740"
     inkscape:connector-curvature="0" />
  <path
     d="m 344.87179,223.58974 c -0.76923,0.2564 -1.79487,0.51282 -2.5641,0.51282 -8.71795,0 -15.64103,-6.92308 -15.64103,-15.64102 0,-3.33334 1.28206,-6.41026 3.33334,-8.97437 l -13.33334,-15.64103 c -6.15384,6.41026 -10,15.12821 -10,24.6154 0,19.74359 16.15385,35.89743 35.89744,35.89743 5.12821,0 9.74359,-1.28205 14.10256,-3.33334 l -11.79487,-17.43589 z"
     id="path139"
     style="fill:#81ccb5"
     inkscape:connector-curvature="0" />
  <path
     d="m 293.07692,155.1282 33.07692,0 0,2.05128 -33.07692,0 z"
     id="rect141"
     style="fill:#81ccb5"
     inkscape:connector-curvature="0" />
  <path
     d="m 362.30769,162.30769 33.07692,0 0,2.05129 -33.07692,0 z"
     id="rect143"
     style="fill:#81ccb5"
     inkscape:connector-curvature="0" />
  <path
     d="m 350.51283,262.30769 33.07692,0 0,2.05129 -33.07692,0 z"
     id="rect145"
     style="fill:#81ccb5"
     inkscape:connector-curvature="0" />
  <path
     d="m 293.84614,257.17949 33.07693,0 0,2.05129 -33.07693,0 z"
     id="rect147"
     style="fill:#81ccb5"
     inkscape:connector-curvature="0" />
  <path
     d="m 393.92655,163.60395 1.04039,0.74911 -14.68242,20.39154 -1.04039,-0.74911 z"
     id="rect149"
     style="fill:#81ccb5"
     inkscape:connector-curvature="0" />
  <path
     d="m 327.17949,258.71795 -1.02564,-0.76923 5.1282,-9.48718 1.02565,0.76923 z"
     id="polygon151"
     style="fill:#81ccb5"
     inkscape:connector-curvature="0" />
  <path
     d="m 331.79487,167.17949 -1.53846,0.76923 -5.64102,-11.79487 1.53846,-0.51282 z"
     id="polygon153"
     style="fill:#81ccb5"
     inkscape:connector-curvature="0" />
  <path
     d="m 375.96833,238.72132 7.82262,24.95601 -1.22333,0.38346 -7.82261,-24.956 z"
     id="rect155"
     style="fill:#81ccb5"
     inkscape:connector-curvature="0" />
  <path
     d="m 285.64102,307.94872 -71.53846,0 c -4.87179,0 -8.97436,-5.38463 -8.97436,-11.79489 l 0,-126.92306 c 0,-6.41026 4.10257,-11.79487 8.97436,-11.79487 l 71.53846,0 c 4.8718,0 8.97436,5.38461 8.97436,11.79487 l 0,126.66666 c 0,6.66666 -4.10256,12.05129 -8.97436,12.05129 z"
     id="path159"
     style="fill:#103345;stroke:#1d5776;stroke-width:0.12820514"
     inkscape:connector-curvature="0" />
  <path
     d="m 215.38463,173.33333 68.97435,0 0,118.71795 -68.97435,0 z"
     id="rect161"
     style="fill:#19b4ca"
     inkscape:connector-curvature="0" />
  <path
     d="m 284.35898,167.4359 -73.58975,124.61539 0,-124.35898 z"
     id="polygon165"
     style="opacity:0.35;fill:#ffffff"
     inkscape:connector-curvature="0" />
  <path
     d="m 254.61538,300 c 0,2.30769 -1.79487,4.10256 -3.84615,4.10256 -2.05128,0 -3.84616,-1.79487 -3.84616,-4.10256 0,-2.30769 1.79488,-4.10257 3.84616,-4.10257 2.05128,0 3.84615,1.79488 3.84615,4.10257 z"
     id="path167"
     style="opacity:0.5;fill:#ffffff"
     inkscape:connector-curvature="0" />
  <path
     d="m 260.51282,165.64102 c 0,1.02564 -0.76923,1.79488 -1.53846,1.79488 l -17.94872,0 c -0.76923,0 -1.53846,-0.76924 -1.53846,-1.79488 l 0,0 c 0,-1.02564 0.76923,-1.79487 1.53846,-1.79487 l 17.94872,0 c 0.76923,0 1.53846,0.76923 1.53846,1.79487 l 0,0 z"
     id="path169"
     style="opacity:0.5;fill:#ffffff"
     inkscape:connector-curvature="0" />
  <path
     d="m 240,233.07692 c 0,2.30768 -1.79487,4.10256 -4.10257,4.10256 -2.30769,0 -4.10256,-1.79487 -4.10256,-4.10256 0,-2.30769 1.79487,-4.10257 4.10256,-4.10257 2.3077,0 4.10257,2.05128 4.10257,4.10257 z"
     id="path175"
     style="fill:#ffffff"
     inkscape:connector-curvature="0" />
  <path
     d="m 267.69231,221.79487 c 0,3.33333 -2.82052,6.15384 -6.15385,6.15384 -3.58974,0 -6.15385,-2.82051 -6.15385,-6.15384 0,-3.58974 2.82052,-6.15385 6.15385,-6.15385 3.58974,0 6.15385,2.82052 6.15385,6.15385 z"
     id="path177"
     style="fill:#ffffff"
     inkscape:connector-curvature="0" />
  <path
     d="m 268.46154,246.66666 c 0,3.33334 -2.82052,6.15385 -6.15385,6.15385 -3.58974,0 -6.15385,-2.82051 -6.15385,-6.15385 0,-3.33334 2.82052,-6.15384 6.15385,-6.15384 3.33333,0 6.15385,2.82051 6.15385,6.15384 z"
     id="path179"
     style="fill:#ffffff"
     inkscape:connector-curvature="0" />
  <path
     d="m 261.24748,221.25139 0.52346,1.17025 -25.51159,11.41146 -0.52346,-1.17025 z"
     id="rect183"
     style="fill:#ffffff"
     inkscape:connector-curvature="0" />
  <path
     d="m 236.37628,232.53136 26.16398,13.60244 -0.59141,1.13756 -26.16398,-13.60244 z"
     id="rect187"
     style="fill:#ffffff"
     inkscape:connector-curvature="0" />
  <path
     d="m 225.89744,185.64103 21.02564,0 0,4.87179 -21.02564,0 z"
     id="rect193"
     style="opacity:0.5;fill:#ffffff"
     inkscape:connector-curvature="0" />
  <path
     d="m 229.23079,276.41026 31.53846,0 0,4.10257 -31.53846,0 z"
     id="rect197"
     style="opacity:0.5;fill:#ffffff"
     inkscape:connector-curvature="0" />
  <path
     d="m 229.23079,262.82052 40.51282,0 0,4.10256 -40.51282,0 z"
     id="rect201"
     style="opacity:0.5;fill:#ffffff"
     inkscape:connector-curvature="0" />
  <path
     d="m 251.53847,186.15384 5.1282,0 0,4.10256 -5.1282,0 z"
     id="rect205"
     style="opacity:0.5;fill:#ffffff"
     inkscape:connector-curvature="0" />
  <path
     d="m 262.82051,186.15384 7.17949,0 0,4.10256 -7.17949,0 z"
     id="rect209"
     style="opacity:0.5;fill:#ffffff"
     inkscape:connector-curvature="0" />
  <path
     d="m 226.66667,195.3846 27.4359,0 0,4.10257 -27.4359,0 z"
     id="rect213"
     style="opacity:0.5;fill:#ffffff"
     inkscape:connector-curvature="0" />
  <path
     d="m 258.97435,195.3846 11.02564,0 0,4.10257 -11.02564,0 z"
     id="rect217"
     style="opacity:0.5;fill:#ffffff"
     inkscape:connector-curvature="0" />
</svg>
