<?xml version="1.0" encoding="UTF-8" standalone="no"?>
<!-- Created with Inkscape (http://www.inkscape.org/) -->

<svg
   xmlns:dc="http://purl.org/dc/elements/1.1/"
   xmlns:cc="http://creativecommons.org/ns#"
   xmlns:rdf="http://www.w3.org/1999/02/22-rdf-syntax-ns#"
   xmlns:svg="http://www.w3.org/2000/svg"
   xmlns="http://www.w3.org/2000/svg"
   xmlns:sodipodi="http://sodipodi.sourceforge.net/DTD/sodipodi-0.dtd"
   xmlns:inkscape="http://www.inkscape.org/namespaces/inkscape"
   id="svg2"
   version="1.1"
   inkscape:version="0.91 r13725"
   xml:space="preserve"
   width="1632.2866"
   height="924.49072"
   viewBox="0 0 1632.2866 924.49072"
   sodipodi:docname="invmachine.svg"><metadata
     id="metadata8"><rdf:RDF><cc:Work
         rdf:about=""><dc:format>image/svg+xml</dc:format><dc:type
           rdf:resource="http://purl.org/dc/dcmitype/StillImage" /><dc:title></dc:title></cc:Work></rdf:RDF></metadata><defs
     id="defs6"><clipPath
       clipPathUnits="userSpaceOnUse"
       id="clipPath722"><path
         d="m 5032.52,3672.53 -146.94,32.56 c -0.1,22.23 -0.61,44.27 -1.55,66.3 l 148.49,0 0,-98.86 m 0,296.57 -168.34,0 c -46.16,289.85 -164.98,555.5 -337.15,777.69 l 505.49,112.01 0,-889.7 m -2027.2,152.64 -147.63,32.71 0,12.36 0,197.71 0,12.36 1205.1,267.04 c 60.48,-57.45 115.39,-120.6 163.96,-188.69 -125.04,55.52 -262.38,86.56 -405.71,86.57 -0.02,0 -0.05,0 -0.07,0 -275.11,0 -524.28,-113.76 -708.41,-296.25 -38.72,-38.36 -74.58,-79.77 -107.24,-123.81"
         id="path724"
         inkscape:connector-curvature="0" /></clipPath><clipPath
       clipPathUnits="userSpaceOnUse"
       id="clipPath734"><path
         d="m 4885.58,3705.09 -56.76,12.58 c -3.89,18.07 -8.26,35.97 -13.11,53.72 l 68.32,0 c 0.94,-22.03 1.45,-44.07 1.55,-66.3 m -21.4,264.01 -125.18,0 c -50.15,98.06 -115.45,187.6 -192.6,265.25 -91.58,92.21 -199.99,167.76 -319.65,220.88 -48.57,68.09 -103.48,131.24 -163.96,188.69 l 464.24,102.87 c 172.17,-222.19 290.99,-487.84 337.15,-777.69"
         id="path736"
         inkscape:connector-curvature="0" /></clipPath><clipPath
       clipPathUnits="userSpaceOnUse"
       id="clipPath746"><path
         d="m 5032.52,3771.39 -148.49,0 -68.32,0 c -18.78,68.78 -44.65,135 -76.71,197.71 l 125.18,0 168.34,0 0,-197.71"
         id="path748"
         inkscape:connector-curvature="0" /></clipPath><clipPath
       clipPathUnits="userSpaceOnUse"
       id="clipPath758"><path
         d="m 4775.44,3729.5 -1717.02,380.47 c 27.5,35.48 57.21,69.05 88.93,100.46 175.77,174.09 412.36,281.92 673.69,281.94 266.34,0.02 511.53,-112.92 690.3,-292.85 127.57,-128.44 221.05,-290.77 264.1,-470.02"
         id="path760"
         inkscape:connector-curvature="0" /></clipPath><clipPath
       clipPathUnits="userSpaceOnUse"
       id="clipPath770"><path
         d="m 4828.82,3717.67 -53.38,11.83 c -43.05,179.25 -136.53,341.58 -264.1,470.02 -178.77,179.93 -423.96,292.87 -690.3,292.85 -261.33,-0.02 -497.92,-107.85 -673.69,-281.94 -31.72,-31.41 -61.43,-64.98 -88.93,-100.46 l -53.1,11.77 c 32.66,44.04 68.52,85.45 107.24,123.81 184.13,182.49 433.3,296.25 708.41,296.25 0.02,0 0.05,0 0.07,0 143.33,-0.01 280.67,-31.05 405.71,-86.57 119.66,-53.12 228.07,-128.67 319.65,-220.88 77.15,-77.65 142.45,-167.19 192.6,-265.25 32.06,-62.71 57.93,-128.93 76.71,-197.71 4.85,-17.75 9.22,-35.65 13.11,-53.72"
         id="path772"
         inkscape:connector-curvature="0" /></clipPath><filter
       style="color-interpolation-filters:sRGB;"
       inkscape:label="Greyscale"
       id="filter6109"
       inkscape:menu="Color"
       inkscape:menu-tooltip="Oversaturate colors which can be fluorescent in real world"><feColorMatrix
         values="0.21 0.72 0.072 0.1 0 0.21 0.72 0.072 0.1 0 0.21 0.72 0.072 0.1 0 0 0 0 1 0 "
         id="feColorMatrix6111"
         result="fbSourceGraphic" /><feColorMatrix
         result="fbSourceGraphicAlpha"
         in="fbSourceGraphic"
         values="0 0 0 -1 0 0 0 0 -1 0 0 0 0 -1 0 0 0 0 1 0"
         id="feColorMatrix4360" /><feColorMatrix
         id="feColorMatrix4362"
         type="hueRotate"
         values="0"
         in="fbSourceGraphic" /><feColorMatrix
         id="feColorMatrix4364"
         type="saturate"
         values="1" /><feColorMatrix
         id="feColorMatrix4366"
         type="matrix"
         values="2 -1 0 0 0 0 2 -1 0 0 -1 0 2 0 0 0 0 0 1 0 "
         result="fbSourceGraphic" /><feColorMatrix
         result="fbSourceGraphicAlpha"
         in="fbSourceGraphic"
         values="0 0 0 -1 0 0 0 0 -1 0 0 0 0 -1 0 0 0 0 1 0"
         id="feColorMatrix4868" /><feColorMatrix
         id="feColorMatrix4870"
         values="0.31 0.62 1.5 -1.38298 0 0.31 0.62 1.5 -1.38298 0 0.31 0.62 1.5 -1.38298 0 0 0 0 1 0 "
         in="fbSourceGraphic" /></filter><filter
       style="color-interpolation-filters:sRGB;"
       inkscape:label="Greyscale"
       id="filter6113"
       inkscape:menu="Color"
       inkscape:menu-tooltip="Oversaturate colors which can be fluorescent in real world"><feColorMatrix
         values="0.21 0.72 0.072 0.1 0 0.21 0.72 0.072 0.1 0 0.21 0.72 0.072 0.1 0 0 0 0 1 0 "
         id="feColorMatrix6115"
         result="fbSourceGraphic" /><feColorMatrix
         result="fbSourceGraphicAlpha"
         in="fbSourceGraphic"
         values="0 0 0 -1 0 0 0 0 -1 0 0 0 0 -1 0 0 0 0 1 0"
         id="feColorMatrix4328" /><feColorMatrix
         id="feColorMatrix4330"
         type="hueRotate"
         values="0"
         in="fbSourceGraphic" /><feColorMatrix
         id="feColorMatrix4332"
         type="saturate"
         values="1" /><feColorMatrix
         id="feColorMatrix4334"
         type="matrix"
         values="2 -1 0 0 0 0 2 -1 0 0 -1 0 2 0 0 0 0 0 1 0 "
         result="fbSourceGraphic" /><feColorMatrix
         result="fbSourceGraphicAlpha"
         in="fbSourceGraphic"
         values="0 0 0 -1 0 0 0 0 -1 0 0 0 0 -1 0 0 0 0 1 0"
         id="feColorMatrix4852" /><feColorMatrix
         id="feColorMatrix4854"
         values="0.31 0.62 1.5 -1.38298 0 0.31 0.62 1.5 -1.38298 0 0.31 0.62 1.5 -1.38298 0 0 0 0 1 0 "
         in="fbSourceGraphic" /></filter><filter
       style="color-interpolation-filters:sRGB;"
       inkscape:label="Greyscale"
       id="filter6117"
       inkscape:menu="Color"
       inkscape:menu-tooltip="Oversaturate colors which can be fluorescent in real world"><feColorMatrix
         values="0.21 0.72 0.072 0.1 0 0.21 0.72 0.072 0.1 0 0.21 0.72 0.072 0.1 0 0 0 0 1 0 "
         id="feColorMatrix6119"
         result="fbSourceGraphic" /><feColorMatrix
         result="fbSourceGraphicAlpha"
         in="fbSourceGraphic"
         values="0 0 0 -1 0 0 0 0 -1 0 0 0 0 -1 0 0 0 0 1 0"
         id="feColorMatrix4320" /><feColorMatrix
         id="feColorMatrix4322"
         type="hueRotate"
         values="0"
         in="fbSourceGraphic" /><feColorMatrix
         id="feColorMatrix4324"
         type="saturate"
         values="1" /><feColorMatrix
         id="feColorMatrix4326"
         type="matrix"
         values="2 -1 0 0 0 0 2 -1 0 0 -1 0 2 0 0 0 0 0 1 0 "
         result="fbSourceGraphic" /><feColorMatrix
         result="fbSourceGraphicAlpha"
         in="fbSourceGraphic"
         values="0 0 0 -1 0 0 0 0 -1 0 0 0 0 -1 0 0 0 0 1 0"
         id="feColorMatrix4848" /><feColorMatrix
         id="feColorMatrix4850"
         values="0.31 0.62 1.5 -1.38298 0 0.31 0.62 1.5 -1.38298 0 0.31 0.62 1.5 -1.38298 0 0 0 0 1 0 "
         in="fbSourceGraphic" /></filter><filter
       style="color-interpolation-filters:sRGB;"
       inkscape:label="Greyscale"
       id="filter6121"
       inkscape:menu="Color"
       inkscape:menu-tooltip="Oversaturate colors which can be fluorescent in real world"><feColorMatrix
         values="0.21 0.72 0.072 0.1 0 0.21 0.72 0.072 0.1 0 0.21 0.72 0.072 0.1 0 0 0 0 1 0 "
         id="feColorMatrix6123"
         result="fbSourceGraphic" /><feColorMatrix
         result="fbSourceGraphicAlpha"
         in="fbSourceGraphic"
         values="0 0 0 -1 0 0 0 0 -1 0 0 0 0 -1 0 0 0 0 1 0"
         id="feColorMatrix4312" /><feColorMatrix
         id="feColorMatrix4314"
         type="hueRotate"
         values="0"
         in="fbSourceGraphic" /><feColorMatrix
         id="feColorMatrix4316"
         type="saturate"
         values="1" /><feColorMatrix
         id="feColorMatrix4318"
         type="matrix"
         values="2 -1 0 0 0 0 2 -1 0 0 -1 0 2 0 0 0 0 0 1 0 "
         result="fbSourceGraphic" /><feColorMatrix
         result="fbSourceGraphicAlpha"
         in="fbSourceGraphic"
         values="0 0 0 -1 0 0 0 0 -1 0 0 0 0 -1 0 0 0 0 1 0"
         id="feColorMatrix4844" /><feColorMatrix
         id="feColorMatrix4846"
         values="0.31 0.62 1.5 -1.38298 0 0.31 0.62 1.5 -1.38298 0 0.31 0.62 1.5 -1.38298 0 0 0 0 1 0 "
         in="fbSourceGraphic" /></filter><filter
       style="color-interpolation-filters:sRGB;"
       inkscape:label="Greyscale"
       id="filter6125"
       inkscape:menu="Color"
       inkscape:menu-tooltip="Oversaturate colors which can be fluorescent in real world"><feColorMatrix
         values="0.21 0.72 0.072 0.1 0 0.21 0.72 0.072 0.1 0 0.21 0.72 0.072 0.1 0 0 0 0 1 0 "
         id="feColorMatrix6127"
         result="fbSourceGraphic" /><feColorMatrix
         result="fbSourceGraphicAlpha"
         in="fbSourceGraphic"
         values="0 0 0 -1 0 0 0 0 -1 0 0 0 0 -1 0 0 0 0 1 0"
         id="feColorMatrix4304" /><feColorMatrix
         id="feColorMatrix4306"
         type="hueRotate"
         values="0"
         in="fbSourceGraphic" /><feColorMatrix
         id="feColorMatrix4308"
         type="saturate"
         values="1" /><feColorMatrix
         id="feColorMatrix4310"
         type="matrix"
         values="2 -1 0 0 0 0 2 -1 0 0 -1 0 2 0 0 0 0 0 1 0 "
         result="fbSourceGraphic" /><feColorMatrix
         result="fbSourceGraphicAlpha"
         in="fbSourceGraphic"
         values="0 0 0 -1 0 0 0 0 -1 0 0 0 0 -1 0 0 0 0 1 0"
         id="feColorMatrix4840" /><feColorMatrix
         id="feColorMatrix4842"
         values="0.31 0.62 1.5 -1.38298 0 0.31 0.62 1.5 -1.38298 0 0.31 0.62 1.5 -1.38298 0 0 0 0 1 0 "
         in="fbSourceGraphic" /></filter><filter
       style="color-interpolation-filters:sRGB;"
       inkscape:label="Greyscale"
       id="filter6129"
       inkscape:menu="Color"
       inkscape:menu-tooltip="Oversaturate colors which can be fluorescent in real world"><feColorMatrix
         values="0.21 0.72 0.072 0.1 0 0.21 0.72 0.072 0.1 0 0.21 0.72 0.072 0.1 0 0 0 0 1 0 "
         id="feColorMatrix6131"
         result="fbSourceGraphic" /><feColorMatrix
         result="fbSourceGraphicAlpha"
         in="fbSourceGraphic"
         values="0 0 0 -1 0 0 0 0 -1 0 0 0 0 -1 0 0 0 0 1 0"
         id="feColorMatrix4296" /><feColorMatrix
         id="feColorMatrix4298"
         type="hueRotate"
         values="0"
         in="fbSourceGraphic" /><feColorMatrix
         id="feColorMatrix4300"
         type="saturate"
         values="1" /><feColorMatrix
         id="feColorMatrix4302"
         type="matrix"
         values="2 -1 0 0 0 0 2 -1 0 0 -1 0 2 0 0 0 0 0 1 0 "
         result="fbSourceGraphic" /><feColorMatrix
         result="fbSourceGraphicAlpha"
         in="fbSourceGraphic"
         values="0 0 0 -1 0 0 0 0 -1 0 0 0 0 -1 0 0 0 0 1 0"
         id="feColorMatrix4836" /><feColorMatrix
         id="feColorMatrix4838"
         values="0.31 0.62 1.5 -1.38298 0 0.31 0.62 1.5 -1.38298 0 0.31 0.62 1.5 -1.38298 0 0 0 0 1 0 "
         in="fbSourceGraphic" /></filter><filter
       style="color-interpolation-filters:sRGB;"
       inkscape:label="Greyscale"
       id="filter6133"
       inkscape:menu="Color"
       inkscape:menu-tooltip="Oversaturate colors which can be fluorescent in real world"><feColorMatrix
         values="0.21 0.72 0.072 0.1 0 0.21 0.72 0.072 0.1 0 0.21 0.72 0.072 0.1 0 0 0 0 1 0 "
         id="feColorMatrix6135"
         result="fbSourceGraphic" /><feColorMatrix
         result="fbSourceGraphicAlpha"
         in="fbSourceGraphic"
         values="0 0 0 -1 0 0 0 0 -1 0 0 0 0 -1 0 0 0 0 1 0"
         id="feColorMatrix4288" /><feColorMatrix
         id="feColorMatrix4290"
         type="hueRotate"
         values="0"
         in="fbSourceGraphic" /><feColorMatrix
         id="feColorMatrix4292"
         type="saturate"
         values="1" /><feColorMatrix
         id="feColorMatrix4294"
         type="matrix"
         values="2 -1 0 0 0 0 2 -1 0 0 -1 0 2 0 0 0 0 0 1 0 "
         result="fbSourceGraphic" /><feColorMatrix
         result="fbSourceGraphicAlpha"
         in="fbSourceGraphic"
         values="0 0 0 -1 0 0 0 0 -1 0 0 0 0 -1 0 0 0 0 1 0"
         id="feColorMatrix4832" /><feColorMatrix
         id="feColorMatrix4834"
         values="0.31 0.62 1.5 -1.38298 0 0.31 0.62 1.5 -1.38298 0 0.31 0.62 1.5 -1.38298 0 0 0 0 1 0 "
         in="fbSourceGraphic" /></filter><filter
       style="color-interpolation-filters:sRGB"
       inkscape:label="Greyscale"
       id="filter6137"><feColorMatrix
         values="0.21 0.72 0.072 0.1 0 0.21 0.72 0.072 0.1 0 0.21 0.72 0.072 0.1 0 0 0 0 1 0 "
         id="feColorMatrix6139" /></filter><filter
       style="color-interpolation-filters:sRGB"
       inkscape:label="Greyscale"
       id="filter6141"><feColorMatrix
         values="0.21 0.72 0.072 0.1 0 0.21 0.72 0.072 0.1 0 0.21 0.72 0.072 0.1 0 0 0 0 1 0 "
         id="feColorMatrix6143" /></filter><filter
       style="color-interpolation-filters:sRGB"
       inkscape:label="Greyscale"
       id="filter6145"><feColorMatrix
         values="0.21 0.72 0.072 0.1 0 0.21 0.72 0.072 0.1 0 0.21 0.72 0.072 0.1 0 0 0 0 1 0 "
         id="feColorMatrix6147" /></filter><filter
       style="color-interpolation-filters:sRGB;"
       inkscape:label="Greyscale"
       id="filter6149"
       inkscape:menu="Color"
       inkscape:menu-tooltip="Oversaturate colors which can be fluorescent in real world"><feColorMatrix
         values="0.21 0.72 0.072 0.1 0 0.21 0.72 0.072 0.1 0 0.21 0.72 0.072 0.1 0 0 0 0 1 0 "
         id="feColorMatrix6151"
         result="fbSourceGraphic" /><feColorMatrix
         result="fbSourceGraphicAlpha"
         in="fbSourceGraphic"
         values="0 0 0 -1 0 0 0 0 -1 0 0 0 0 -1 0 0 0 0 1 0"
         id="feColorMatrix4280" /><feColorMatrix
         id="feColorMatrix4282"
         type="hueRotate"
         values="0"
         in="fbSourceGraphic" /><feColorMatrix
         id="feColorMatrix4284"
         type="saturate"
         values="1" /><feColorMatrix
         id="feColorMatrix4286"
         type="matrix"
         values="2 -1 0 0 0 0 2 -1 0 0 -1 0 2 0 0 0 0 0 1 0 "
         result="fbSourceGraphic" /><feColorMatrix
         result="fbSourceGraphicAlpha"
         in="fbSourceGraphic"
         values="0 0 0 -1 0 0 0 0 -1 0 0 0 0 -1 0 0 0 0 1 0"
         id="feColorMatrix4828" /><feColorMatrix
         id="feColorMatrix4830"
         values="0.31 0.62 1.5 -1.38298 0 0.31 0.62 1.5 -1.38298 0 0.31 0.62 1.5 -1.38298 0 0 0 0 1 0 "
         in="fbSourceGraphic" /></filter><filter
       style="color-interpolation-filters:sRGB;"
       inkscape:label="Greyscale"
       id="filter6153"
       inkscape:menu="Color"
       inkscape:menu-tooltip="Oversaturate colors which can be fluorescent in real world"><feColorMatrix
         values="0.21 0.72 0.072 0.1 0 0.21 0.72 0.072 0.1 0 0.21 0.72 0.072 0.1 0 0 0 0 1 0 "
         id="feColorMatrix6155"
         result="fbSourceGraphic" /><feColorMatrix
         result="fbSourceGraphicAlpha"
         in="fbSourceGraphic"
         values="0 0 0 -1 0 0 0 0 -1 0 0 0 0 -1 0 0 0 0 1 0"
         id="feColorMatrix4272" /><feColorMatrix
         id="feColorMatrix4274"
         type="hueRotate"
         values="0"
         in="fbSourceGraphic" /><feColorMatrix
         id="feColorMatrix4276"
         type="saturate"
         values="1" /><feColorMatrix
         id="feColorMatrix4278"
         type="matrix"
         values="2 -1 0 0 0 0 2 -1 0 0 -1 0 2 0 0 0 0 0 1 0 "
         result="fbSourceGraphic" /><feColorMatrix
         result="fbSourceGraphicAlpha"
         in="fbSourceGraphic"
         values="0 0 0 -1 0 0 0 0 -1 0 0 0 0 -1 0 0 0 0 1 0"
         id="feColorMatrix4824" /><feColorMatrix
         id="feColorMatrix4826"
         values="0.31 0.62 1.5 -1.38298 0 0.31 0.62 1.5 -1.38298 0 0.31 0.62 1.5 -1.38298 0 0 0 0 1 0 "
         in="fbSourceGraphic" /></filter><filter
       style="color-interpolation-filters:sRGB;"
       inkscape:label="Greyscale"
       id="filter6157"
       inkscape:menu="Color"
       inkscape:menu-tooltip="Oversaturate colors which can be fluorescent in real world"><feColorMatrix
         values="0.21 0.72 0.072 0.1 0 0.21 0.72 0.072 0.1 0 0.21 0.72 0.072 0.1 0 0 0 0 1 0 "
         id="feColorMatrix6159"
         result="fbSourceGraphic" /><feColorMatrix
         result="fbSourceGraphicAlpha"
         in="fbSourceGraphic"
         values="0 0 0 -1 0 0 0 0 -1 0 0 0 0 -1 0 0 0 0 1 0"
         id="feColorMatrix4264" /><feColorMatrix
         id="feColorMatrix4266"
         type="hueRotate"
         values="0"
         in="fbSourceGraphic" /><feColorMatrix
         id="feColorMatrix4268"
         type="saturate"
         values="1" /><feColorMatrix
         id="feColorMatrix4270"
         type="matrix"
         values="2 -1 0 0 0 0 2 -1 0 0 -1 0 2 0 0 0 0 0 1 0 "
         result="fbSourceGraphic" /><feColorMatrix
         result="fbSourceGraphicAlpha"
         in="fbSourceGraphic"
         values="0 0 0 -1 0 0 0 0 -1 0 0 0 0 -1 0 0 0 0 1 0"
         id="feColorMatrix4820" /><feColorMatrix
         id="feColorMatrix4822"
         values="0.31 0.62 1.5 -1.38298 0 0.31 0.62 1.5 -1.38298 0 0.31 0.62 1.5 -1.38298 0 0 0 0 1 0 "
         in="fbSourceGraphic" /></filter><filter
       style="color-interpolation-filters:sRGB;"
       inkscape:label="Greyscale"
       id="filter6161"
       inkscape:menu="Color"
       inkscape:menu-tooltip="Oversaturate colors which can be fluorescent in real world"><feColorMatrix
         values="0.21 0.72 0.072 0.1 0 0.21 0.72 0.072 0.1 0 0.21 0.72 0.072 0.1 0 0 0 0 1 0 "
         id="feColorMatrix6163"
         result="fbSourceGraphic" /><feColorMatrix
         result="fbSourceGraphicAlpha"
         in="fbSourceGraphic"
         values="0 0 0 -1 0 0 0 0 -1 0 0 0 0 -1 0 0 0 0 1 0"
         id="feColorMatrix4256" /><feColorMatrix
         id="feColorMatrix4258"
         type="hueRotate"
         values="0"
         in="fbSourceGraphic" /><feColorMatrix
         id="feColorMatrix4260"
         type="saturate"
         values="1" /><feColorMatrix
         id="feColorMatrix4262"
         type="matrix"
         values="2 -1 0 0 0 0 2 -1 0 0 -1 0 2 0 0 0 0 0 1 0 "
         result="fbSourceGraphic" /><feColorMatrix
         result="fbSourceGraphicAlpha"
         in="fbSourceGraphic"
         values="0 0 0 -1 0 0 0 0 -1 0 0 0 0 -1 0 0 0 0 1 0"
         id="feColorMatrix4816" /><feColorMatrix
         id="feColorMatrix4818"
         values="0.31 0.62 1.5 -1.38298 0 0.31 0.62 1.5 -1.38298 0 0.31 0.62 1.5 -1.38298 0 0 0 0 1 0 "
         in="fbSourceGraphic" /></filter><filter
       style="color-interpolation-filters:sRGB;"
       inkscape:label="Greyscale"
       id="filter6165"
       inkscape:menu="Color"
       inkscape:menu-tooltip="Oversaturate colors which can be fluorescent in real world"><feColorMatrix
         values="0.21 0.72 0.072 0.1 0 0.21 0.72 0.072 0.1 0 0.21 0.72 0.072 0.1 0 0 0 0 1 0 "
         id="feColorMatrix6167"
         result="fbSourceGraphic" /><feColorMatrix
         result="fbSourceGraphicAlpha"
         in="fbSourceGraphic"
         values="0 0 0 -1 0 0 0 0 -1 0 0 0 0 -1 0 0 0 0 1 0"
         id="feColorMatrix4248" /><feColorMatrix
         id="feColorMatrix4250"
         type="hueRotate"
         values="0"
         in="fbSourceGraphic" /><feColorMatrix
         id="feColorMatrix4252"
         type="saturate"
         values="1" /><feColorMatrix
         id="feColorMatrix4254"
         type="matrix"
         values="2 -1 0 0 0 0 2 -1 0 0 -1 0 2 0 0 0 0 0 1 0 "
         result="fbSourceGraphic" /><feColorMatrix
         result="fbSourceGraphicAlpha"
         in="fbSourceGraphic"
         values="0 0 0 -1 0 0 0 0 -1 0 0 0 0 -1 0 0 0 0 1 0"
         id="feColorMatrix4812" /><feColorMatrix
         id="feColorMatrix4814"
         values="0.31 0.62 1.5 -1.38298 0 0.31 0.62 1.5 -1.38298 0 0.31 0.62 1.5 -1.38298 0 0 0 0 1 0 "
         in="fbSourceGraphic" /></filter><filter
       style="color-interpolation-filters:sRGB;"
       inkscape:label="Greyscale"
       id="filter6169"
       inkscape:menu="Color"
       inkscape:menu-tooltip="Oversaturate colors which can be fluorescent in real world"><feColorMatrix
         values="0.21 0.72 0.072 0.1 0 0.21 0.72 0.072 0.1 0 0.21 0.72 0.072 0.1 0 0 0 0 1 0 "
         id="feColorMatrix6171"
         result="fbSourceGraphic" /><feColorMatrix
         result="fbSourceGraphicAlpha"
         in="fbSourceGraphic"
         values="0 0 0 -1 0 0 0 0 -1 0 0 0 0 -1 0 0 0 0 1 0"
         id="feColorMatrix4240" /><feColorMatrix
         id="feColorMatrix4242"
         type="hueRotate"
         values="0"
         in="fbSourceGraphic" /><feColorMatrix
         id="feColorMatrix4244"
         type="saturate"
         values="1" /><feColorMatrix
         id="feColorMatrix4246"
         type="matrix"
         values="2 -1 0 0 0 0 2 -1 0 0 -1 0 2 0 0 0 0 0 1 0 "
         result="fbSourceGraphic" /><feColorMatrix
         result="fbSourceGraphicAlpha"
         in="fbSourceGraphic"
         values="0 0 0 -1 0 0 0 0 -1 0 0 0 0 -1 0 0 0 0 1 0"
         id="feColorMatrix4808" /><feColorMatrix
         id="feColorMatrix4810"
         values="0.31 0.62 1.5 -1.38298 0 0.31 0.62 1.5 -1.38298 0 0.31 0.62 1.5 -1.38298 0 0 0 0 1 0 "
         in="fbSourceGraphic" /></filter><filter
       style="color-interpolation-filters:sRGB;"
       inkscape:label="Greyscale"
       id="filter6173"
       inkscape:menu="Color"
       inkscape:menu-tooltip="Oversaturate colors which can be fluorescent in real world"><feColorMatrix
         values="0.21 0.72 0.072 0.1 0 0.21 0.72 0.072 0.1 0 0.21 0.72 0.072 0.1 0 0 0 0 1 0 "
         id="feColorMatrix6175"
         result="fbSourceGraphic" /><feColorMatrix
         result="fbSourceGraphicAlpha"
         in="fbSourceGraphic"
         values="0 0 0 -1 0 0 0 0 -1 0 0 0 0 -1 0 0 0 0 1 0"
         id="feColorMatrix4232" /><feColorMatrix
         id="feColorMatrix4234"
         type="hueRotate"
         values="0"
         in="fbSourceGraphic" /><feColorMatrix
         id="feColorMatrix4236"
         type="saturate"
         values="1" /><feColorMatrix
         id="feColorMatrix4238"
         type="matrix"
         values="2 -1 0 0 0 0 2 -1 0 0 -1 0 2 0 0 0 0 0 1 0 "
         result="fbSourceGraphic" /><feColorMatrix
         result="fbSourceGraphicAlpha"
         in="fbSourceGraphic"
         values="0 0 0 -1 0 0 0 0 -1 0 0 0 0 -1 0 0 0 0 1 0"
         id="feColorMatrix4804" /><feColorMatrix
         id="feColorMatrix4806"
         values="0.31 0.62 1.5 -1.38298 0 0.31 0.62 1.5 -1.38298 0 0.31 0.62 1.5 -1.38298 0 0 0 0 1 0 "
         in="fbSourceGraphic" /></filter><filter
       style="color-interpolation-filters:sRGB;"
       inkscape:label="Greyscale"
       id="filter6177"
       inkscape:menu="Color"
       inkscape:menu-tooltip="Oversaturate colors which can be fluorescent in real world"><feColorMatrix
         values="0.21 0.72 0.072 0.1 0 0.21 0.72 0.072 0.1 0 0.21 0.72 0.072 0.1 0 0 0 0 1 0 "
         id="feColorMatrix6179"
         result="fbSourceGraphic" /><feColorMatrix
         result="fbSourceGraphicAlpha"
         in="fbSourceGraphic"
         values="0 0 0 -1 0 0 0 0 -1 0 0 0 0 -1 0 0 0 0 1 0"
         id="feColorMatrix4224" /><feColorMatrix
         id="feColorMatrix4226"
         type="hueRotate"
         values="0"
         in="fbSourceGraphic" /><feColorMatrix
         id="feColorMatrix4228"
         type="saturate"
         values="1" /><feColorMatrix
         id="feColorMatrix4230"
         type="matrix"
         values="2 -1 0 0 0 0 2 -1 0 0 -1 0 2 0 0 0 0 0 1 0 "
         result="fbSourceGraphic" /><feColorMatrix
         result="fbSourceGraphicAlpha"
         in="fbSourceGraphic"
         values="0 0 0 -1 0 0 0 0 -1 0 0 0 0 -1 0 0 0 0 1 0"
         id="feColorMatrix4800" /><feColorMatrix
         id="feColorMatrix4802"
         values="0.31 0.62 1.5 -1.38298 0 0.31 0.62 1.5 -1.38298 0 0.31 0.62 1.5 -1.38298 0 0 0 0 1 0 "
         in="fbSourceGraphic" /></filter><filter
       style="color-interpolation-filters:sRGB;"
       inkscape:label="Greyscale"
       id="filter6125-3"
       inkscape:menu="Color"
       inkscape:menu-tooltip="Oversaturate colors which can be fluorescent in real world"><feColorMatrix
         values="0.21 0.72 0.072 0.1 0 0.21 0.72 0.072 0.1 0 0.21 0.72 0.072 0.1 0 0 0 0 1 0 "
         id="feColorMatrix6127-6"
         result="fbSourceGraphic" /><feColorMatrix
         result="fbSourceGraphicAlpha"
         in="fbSourceGraphic"
         values="0 0 0 -1 0 0 0 0 -1 0 0 0 0 -1 0 0 0 0 1 0"
         id="feColorMatrix4352" /><feColorMatrix
         id="feColorMatrix4354"
         type="hueRotate"
         values="0"
         in="fbSourceGraphic" /><feColorMatrix
         id="feColorMatrix4356"
         type="saturate"
         values="1" /><feColorMatrix
         id="feColorMatrix4358"
         type="matrix"
         values="2 -1 0 0 0 0 2 -1 0 0 -1 0 2 0 0 0 0 0 1 0 "
         result="fbSourceGraphic" /><feColorMatrix
         result="fbSourceGraphicAlpha"
         in="fbSourceGraphic"
         values="0 0 0 -1 0 0 0 0 -1 0 0 0 0 -1 0 0 0 0 1 0"
         id="feColorMatrix4864" /><feColorMatrix
         id="feColorMatrix4866"
         values="0.31 0.62 1.5 -1.38298 0 0.31 0.62 1.5 -1.38298 0 0.31 0.62 1.5 -1.38298 0 0 0 0 1 0 "
         in="fbSourceGraphic" /></filter><filter
       style="color-interpolation-filters:sRGB;"
       inkscape:label="Greyscale"
       id="filter6129-7"
       inkscape:menu="Color"
       inkscape:menu-tooltip="Oversaturate colors which can be fluorescent in real world"><feColorMatrix
         values="0.21 0.72 0.072 0.1 0 0.21 0.72 0.072 0.1 0 0.21 0.72 0.072 0.1 0 0 0 0 1 0 "
         id="feColorMatrix6131-5"
         result="fbSourceGraphic" /><feColorMatrix
         result="fbSourceGraphicAlpha"
         in="fbSourceGraphic"
         values="0 0 0 -1 0 0 0 0 -1 0 0 0 0 -1 0 0 0 0 1 0"
         id="feColorMatrix4344" /><feColorMatrix
         id="feColorMatrix4346"
         type="hueRotate"
         values="0"
         in="fbSourceGraphic" /><feColorMatrix
         id="feColorMatrix4348"
         type="saturate"
         values="1" /><feColorMatrix
         id="feColorMatrix4350"
         type="matrix"
         values="2 -1 0 0 0 0 2 -1 0 0 -1 0 2 0 0 0 0 0 1 0 "
         result="fbSourceGraphic" /><feColorMatrix
         result="fbSourceGraphicAlpha"
         in="fbSourceGraphic"
         values="0 0 0 -1 0 0 0 0 -1 0 0 0 0 -1 0 0 0 0 1 0"
         id="feColorMatrix4860" /><feColorMatrix
         id="feColorMatrix4862"
         values="0.31 0.62 1.5 -1.38298 0 0.31 0.62 1.5 -1.38298 0 0.31 0.62 1.5 -1.38298 0 0 0 0 1 0 "
         in="fbSourceGraphic" /></filter><filter
       style="color-interpolation-filters:sRGB;"
       inkscape:label="Greyscale"
       id="filter6133-3"
       inkscape:menu="Color"
       inkscape:menu-tooltip="Oversaturate colors which can be fluorescent in real world"><feColorMatrix
         values="0.21 0.72 0.072 0.1 0 0.21 0.72 0.072 0.1 0 0.21 0.72 0.072 0.1 0 0 0 0 1 0 "
         id="feColorMatrix6135-5"
         result="fbSourceGraphic" /><feColorMatrix
         result="fbSourceGraphicAlpha"
         in="fbSourceGraphic"
         values="0 0 0 -1 0 0 0 0 -1 0 0 0 0 -1 0 0 0 0 1 0"
         id="feColorMatrix4336" /><feColorMatrix
         id="feColorMatrix4338"
         type="hueRotate"
         values="0"
         in="fbSourceGraphic" /><feColorMatrix
         id="feColorMatrix4340"
         type="saturate"
         values="1" /><feColorMatrix
         id="feColorMatrix4342"
         type="matrix"
         values="2 -1 0 0 0 0 2 -1 0 0 -1 0 2 0 0 0 0 0 1 0 "
         result="fbSourceGraphic" /><feColorMatrix
         result="fbSourceGraphicAlpha"
         in="fbSourceGraphic"
         values="0 0 0 -1 0 0 0 0 -1 0 0 0 0 -1 0 0 0 0 1 0"
         id="feColorMatrix4856" /><feColorMatrix
         id="feColorMatrix4858"
         values="0.31 0.62 1.5 -1.38298 0 0.31 0.62 1.5 -1.38298 0 0.31 0.62 1.5 -1.38298 0 0 0 0 1 0 "
         in="fbSourceGraphic" /></filter></defs><sodipodi:namedview
     pagecolor="#ffffff"
     bordercolor="#666666"
     borderopacity="1"
     objecttolerance="10"
     gridtolerance="10"
     guidetolerance="10"
     inkscape:pageopacity="0"
     inkscape:pageshadow="2"
     inkscape:window-width="1366"
     inkscape:window-height="711"
     id="namedview4"
     showgrid="false"
     inkscape:zoom="0.89001174"
     inkscape:cx="1010.2552"
     inkscape:cy="431.99729"
     inkscape:window-x="0"
     inkscape:window-y="27"
     inkscape:window-maximized="1"
     inkscape:current-layer="g10"
     fit-margin-top="0"
     fit-margin-left="0"
     fit-margin-right="0"
     fit-margin-bottom="0" /><g
     id="g10"
     inkscape:groupmode="layer"
     inkscape:label="ink_ext_XXXXXX"
     transform="matrix(1.25,0,0,-1.25,64.078391,1278.5852)"><path
       inkscape:connector-curvature="0"
       id="path624"
       style="fill:#ffd248;fill-opacity:1;fill-rule:nonzero;stroke:none;filter:url(#filter6177)"
       d="m 431.59982,284.85873 0,33.5981 -74.24297,-51.38299 74.24297,-51.39184 0,25.47488 458.87274,0 0,43.70185 -458.87274,0"
       transform="matrix(1.1727518,0,0,1.0355478,-89.028604,73.598184)" /><path
       inkscape:connector-curvature="0"
       id="path626"
       style="fill:#cccccc;fill-opacity:1;fill-rule:nonzero;stroke:none;filter:url(#filter6173)"
       d="m 708.37968,812.92809 0,-32.75594 74.24076,51.3852 -74.24076,51.39184 0,-26.31925 -369.9505,0 -0.30282,-43.70185 370.25332,0"
       transform="matrix(1.1727518,0,0,1.0355478,-89.028604,73.598184)" /><path
       inkscape:connector-curvature="0"
       id="path628"
       style="fill:#cccccc;fill-opacity:1;fill-rule:nonzero;stroke:none;filter:url(#filter6169)"
       d="m 917.88154,286.54526 c -79.37331,0 -143.72031,64.34701 -143.72031,143.72253 0,79.37331 64.347,143.72031 143.72031,143.72031 79.37552,0 143.72036,-64.347 143.72036,-143.72031 0,-79.37552 -64.34484,-143.72253 -143.72036,-143.72253 z m 0.39787,332.82459 c -104.66251,0 -189.50436,-84.84184 -189.50436,-189.49552 0,-104.65146 84.84185,-189.49551 189.50436,-189.49551 104.64039,0 189.49769,84.84405 189.49769,189.49551 0,104.65368 -84.8573,189.49552 -189.49769,189.49552"
       transform="matrix(1.1727518,0,0,1.0355478,-89.028604,73.598184)" /><path
       inkscape:connector-curvature="0"
       id="path630"
       style="fill:#ffd248;fill-opacity:1;fill-rule:nonzero;stroke:none;filter:url(#filter6165)"
       d="m 259.20397,545.9602 c -79.3711,0 -143.72031,64.34258 -143.72031,143.72032 0,79.3711 64.34921,143.72252 143.72031,143.72252 79.37773,0 143.72252,-64.35142 143.72252,-143.72252 0,-79.37774 -64.34479,-143.72032 -143.72252,-143.72032 z m 0.39566,332.82459 c -104.65809,0 -189.497725,-84.84405 -189.497725,-189.49773 0,-104.65146 84.839635,-189.4933 189.497725,-189.4933 104.65368,0 189.49331,84.84184 189.49331,189.4933 0,104.65368 -84.83963,189.49773 -189.49331,189.49773"
       transform="matrix(1.1727518,0,0,1.0355478,-89.028604,73.598184)" /><path
       inkscape:connector-curvature="0"
       id="path632"
       style="fill:#ffffff;fill-opacity:1;fill-rule:nonzero;stroke:none;filter:url(#filter6161)"
       d="m 641.61671,552.74614 c 0,33.04329 -26.73039,59.85104 -59.85547,59.85104 -33.03224,0 -59.84883,-26.80775 -59.84883,-59.85104 0,-33.03666 26.81659,-59.85326 59.84883,-59.85326 33.12508,0 59.85547,26.8166 59.85547,59.85326 z m 176.91833,48.44316 0,-111.72475 -51.23048,0 c -0.48407,0 -11.8168,-20.58768 -12.61255,-22.02444 l 44.21466,-37.03086 -77.88792,-77.2469 -45.80615,44.53075 c -1.52075,-0.79354 -16.27961,-11.7306 -32.24313,-12.29205 l 0,-71.50428 -111.72253,0 0,71.50428 c 0,0.56145 -24.25695,10.53478 -25.77992,11.33494 l -40.69349,-45.49227 -77.25133,75.41669 44.53075,40.7797 c -0.80016,1.43676 -11.73281,22.02444 -12.20804,22.02444 l -72.1453,0 0,111.72475 72.1453,0 c 0.47523,15.95689 10.93485,34.38943 11.72618,35.91239 l -45.00599,50.83261 76.28759,77.24469 42.61433,-44.52854 c 1.52297,0.80459 25.77992,11.73724 25.77992,12.28763 l 0,51.79413 111.72253,0 0,-51.79413 c 15.96352,-0.55039 30.72238,-12.28763 32.24313,-13.08337 l 47.16555,43.81679 77.24691,-78.84945 -44.61254,-47.72036 c 0.79574,-1.52296 11.80797,-19.9555 12.29204,-35.91239 l 51.23048,0"
       transform="matrix(1.1727518,0,0,1.0355478,-89.028604,73.598184)" /><path
       inkscape:connector-curvature="0"
       id="path634"
       style="fill:#bcbec0;fill-opacity:1;fill-rule:nonzero;stroke:none;filter:url(#filter6157)"
       d="m 581.75682,675.81025 c 68.11132,0 123.06853,-55.12079 123.06853,-123.06411 0,-67.93006 -54.95721,-123.0619 -123.06853,-123.0619 -67.92122,0 -123.05747,55.13184 -123.05747,123.0619 0,67.94332 55.13625,123.06411 123.05747,123.06411"
       transform="matrix(1.1727518,0,0,1.0355478,-89.028604,73.598184)" /><path
       inkscape:connector-curvature="0"
       id="path636"
       style="fill:#e6e7e8;fill-opacity:1;fill-rule:nonzero;stroke:none;filter:url(#filter6153)"
       d="m 581.76124,612.59718 c 33.12508,0 59.85547,-26.80775 59.85547,-59.85104 0,-33.03666 -26.73039,-59.85326 -59.85547,-59.85326 -33.03224,0 -59.84883,26.8166 -59.84883,59.85326 0,33.04329 26.81659,59.85104 59.84883,59.85104"
       transform="matrix(1.1727518,0,0,1.0355478,-89.028604,73.598184)" /><path
       inkscape:connector-curvature="0"
       id="path638"
       style="fill:#cccccc;fill-opacity:1;fill-rule:nonzero;stroke:none;filter:url(#filter6149)"
       d="m 767.30456,489.46455 0,-5.4619 51.23048,0 c 1.43897,0 2.84479,0.58133 3.86378,1.60033 1.01679,1.01678 1.59812,2.4226 1.59812,3.86157 l 0,111.72475 c 0,1.43676 -0.58133,2.84479 -1.59812,3.86157 -1.01899,1.01679 -2.42481,1.60033 -3.86378,1.60033 l -51.23048,0 0,-5.4619 5.4597,0.16357 c -0.30504,9.15548 -3.42613,18.2115 -6.46764,25.35773 -1.5296,3.56537 -3.0592,6.63562 -4.25944,8.92339 -0.60123,1.14277 -1.12068,2.09104 -1.51192,2.79615 -0.19672,0.35146 -0.36029,0.64323 -0.48187,0.85985 l -0.14588,0.26304 -0.0398,0.0707 -0.009,0.0155 -0.5526,-0.29619 0.55702,0.29177 -0.004,0.004 -0.5526,-0.29619 0.55702,0.29177 -4.84078,-2.53312 3.98977,-3.73115 44.61254,47.72257 c 1.99378,2.13082 1.95399,5.46853 -0.0884,7.55294 l -77.2469,78.84723 c -2.07557,2.11978 -5.44643,2.19935 -7.61925,0.17905 l -47.16555,-43.81458 3.71789,-4.00304 2.53533,4.83857 -1.24666,-2.37839 1.42349,2.27892 -0.17683,0.0995 -1.24666,-2.37839 1.42349,2.27892 c -0.0575,0.0332 -0.56144,0.37577 -1.19803,0.81343 -2.30324,1.57822 -6.85225,4.65952 -12.6855,7.42474 -5.8443,2.75858 -13.0281,5.28286 -20.88387,5.56579 l -0.18789,-5.45969 5.46191,0 0,51.79413 c 0,1.43897 -0.58355,2.84478 -1.60033,3.86378 -1.01679,1.01678 -2.42482,1.59812 -3.86158,1.59812 l -111.72253,0 c -1.43676,0 -2.84479,-0.58134 -3.86158,-1.59812 -1.01678,-1.019 -1.60033,-2.42481 -1.60033,-3.86378 l 0,-51.79413 5.43096,0 -4.8032,2.53754 c -0.25199,-0.49734 -0.61228,-1.2732 -0.62776,-2.53754 l 5.43096,0 -4.8032,2.53754 4.7391,-2.50439 -4.07156,3.4858 c -0.17462,-0.20777 -0.40008,-0.48407 -0.66754,-0.98141 l 4.7391,-2.50439 -4.07156,3.4858 3.86378,-3.30676 -3.19182,3.96104 c -0.13704,-0.11494 -0.32493,-0.2564 -0.67196,-0.65428 l 3.86378,-3.30676 -3.19182,3.96104 2.19935,-2.72763 -1.85895,2.9752 c -0.0221,-0.0177 -0.084,-0.0442 -0.3404,-0.24757 l 2.19935,-2.72763 -1.85895,2.9752 0.0862,-0.13926 -0.084,0.14147 -0.002,-0.002 0.0862,-0.13926 -0.084,0.14147 c -0.0707,-0.0486 -0.69406,-0.38461 -1.4876,-0.78027 -2.85363,-1.43013 -8.45257,-4.0362 -13.42156,-6.32838 -2.49112,-1.14941 -4.83635,-2.22809 -6.64446,-3.06141 -0.90406,-0.41776 -1.67328,-0.77585 -2.26787,-1.05436 -0.29841,-0.13926 -0.5526,-0.25862 -0.7648,-0.3603 -0.22104,-0.1061 -0.37135,-0.17904 -0.59239,-0.29398 l 2.5508,-4.83194 3.94557,3.77758 -42.61212,44.52854 c -1.02342,1.06762 -2.42481,1.67327 -3.90578,1.68432 -1.47876,0.0111 -2.889,-0.57028 -3.92789,-1.62464 l -76.28759,-77.24248 c -2.01588,-2.0402 -2.1043,-5.3116 -0.20335,-7.46011 l 45.00377,-50.8326 4.09146,3.62063 -4.84962,2.51544 c -0.007,-0.011 -0.0973,-0.18125 -0.21441,-0.40008 -0.45977,-0.85101 -1.4235,-2.63701 -2.59501,-5.04414 -1.75948,-3.61622 -4.01409,-8.66035 -5.90399,-14.36098 -1.88105,-5.70725 -3.42391,-12.05995 -3.62506,-18.46127 l 5.46191,-0.16136 0,5.4619 -72.1453,0 c -1.43676,0 -2.84479,-0.58354 -3.86157,-1.60033 -1.01679,-1.01678 -1.60033,-2.42481 -1.60033,-3.86157 l 0,-111.72475 c 0,-1.43897 0.58354,-2.84479 1.60033,-3.86378 1.01678,-1.01679 2.42481,-1.59812 3.86157,-1.59812 l 72.1453,0 0,5.43317 -2.43145,-4.86068 c 0.47524,-0.22325 1.19362,-0.55481 2.43145,-0.57249 l 0,5.43317 -2.43145,-4.86068 2.37619,4.75016 -3.72895,-3.78642 c 0.22104,-0.1901 0.44208,-0.47966 1.35276,-0.96374 l 2.37619,4.75016 -3.72895,-3.78642 3.03709,3.08572 -3.49243,-2.56407 c 0.0508,-0.0619 0.0928,-0.15252 0.45534,-0.52165 l 3.03709,3.08572 -3.49243,-2.56407 0,-0.004 c 0.11715,-0.17462 0.45313,-0.72722 0.86205,-1.43676 1.45887,-2.52428 4.0163,-7.21696 6.25544,-11.37031 1.12288,-2.07998 2.17061,-4.03177 2.97962,-5.53926 0.4045,-0.75375 0.74933,-1.39698 1.01458,-1.88989 0.26966,-0.49956 0.44429,-0.82227 0.56365,-1.03889 l 4.77225,2.65911 -3.68916,4.02735 -44.53075,-40.77749 c -1.1052,-1.01457 -1.74842,-2.44249 -1.77274,-3.94335 -0.0243,-1.49866 0.5725,-2.94647 1.64675,-3.9942 l 77.25133,-75.41669 c 1.05878,-1.03447 2.51985,-1.60033 4.00082,-1.54949 1.47876,0.0486 2.90005,0.71396 3.88589,1.81695 l 40.69349,45.49006 -4.07156,3.64274 -2.54196,-4.83635 0.43545,-0.2122 c 0.48408,-0.22767 1.14499,-0.51503 2.0623,-0.90848 3.16309,-1.36161 9.06486,-3.83283 14.17531,-6.02776 2.5508,-1.09415 4.90709,-2.11757 6.5671,-2.87353 0.82669,-0.37576 1.48981,-0.68964 1.84348,-0.87089 l 0.18788,-0.0995 0.0243,-0.0133 1.45223,2.56627 -1.73959,-2.37397 c 0.2542,-0.18125 0.28957,-0.19009 0.28736,-0.1923 l 1.45223,2.56627 -1.73959,-2.37397 2.95973,4.04061 -3.64937,-3.42612 c 0.37135,-0.38682 0.55702,-0.5106 0.68964,-0.61449 l 2.95973,4.04061 -3.64937,-3.42612 3.89694,3.65822 -4.62858,-2.67238 c 0.30282,-0.51502 0.54597,-0.78248 0.73164,-0.98584 l 3.89694,3.65822 -4.62858,-2.67238 4.70152,2.71437 -5.42875,0 c 0.0199,-1.38371 0.4465,-2.20377 0.72723,-2.71437 l 4.70152,2.71437 -5.42875,0 0,-71.50428 c 0,-1.43676 0.58355,-2.84478 1.60033,-3.86157 1.01679,-1.01678 2.42482,-1.60033 3.86158,-1.60033 l 111.72253,0 c 1.43676,0 2.84479,0.58355 3.86158,1.60033 1.01678,1.01679 1.60033,2.42481 1.60033,3.86157 l 0,71.50428 -5.46191,0 0.1901,-5.45969 c 9.17317,0.34261 17.47764,3.53001 23.76845,6.62237 3.14098,1.5517 5.7802,3.10119 7.72977,4.31028 0.97258,0.60344 1.77495,1.12288 2.3585,1.50086 0.28956,0.1901 0.52608,0.34261 0.6808,0.43987 l 0.15252,0.0951 0.007,0.004 -1.3174,2.23914 1.20025,-2.30324 0.11715,0.0641 -1.3174,2.23914 1.20025,-2.30324 -2.52649,4.84299 -3.80852,-3.91683 45.80615,-44.53075 c 2.13967,-2.07999 5.53706,-2.06231 7.65462,0.0376 L 802.75277,426.53 c 1.09415,1.0853 1.67549,2.56848 1.61139,4.10913 -0.0641,1.53844 -0.76922,2.96857 -1.94958,3.95883 l -44.21466,37.02865 -3.50791,-4.1865 4.77889,-2.65027 c 0.40671,0.73827 3.42612,6.22007 6.40574,11.52503 1.4876,2.64806 2.96636,5.25192 4.07819,7.15065 0.55482,0.94605 1.02342,1.72632 1.3174,2.19272 l 0.17905,0.2763 0.0619,0.0906 -2.30324,1.62464 2.11977,-1.8501 c 0.17463,0.20335 0.18126,0.22546 0.18347,0.22546 l -2.30324,1.62464 2.11977,-1.8501 -3.75105,3.27139 3.17635,-3.83063 c 0.35587,0.30062 0.47524,0.45093 0.5747,0.55924 l -3.75105,3.27139 3.17635,-3.83063 -3.41065,4.11135 2.51544,-4.71258 c 0.46418,0.25199 0.70733,0.44872 0.89521,0.60123 l -3.41065,4.11135 2.51544,-4.71258 -2.55523,4.79215 0,-5.42874 c 1.37045,0.0265 2.08662,0.40671 2.55523,0.63659 l -2.55523,4.79215 0,-5.42874 0,10.9238 c -1.22677,-0.0155 -1.93852,-0.33819 -2.41818,-0.55923 -0.91731,-0.47745 -1.16709,-0.78027 -1.41686,-0.99468 -0.42219,-0.41555 -0.54376,-0.59902 -0.69186,-0.78469 -0.25199,-0.33819 -0.41777,-0.59239 -0.61891,-0.90185 -0.71396,-1.11404 -1.71306,-2.82489 -2.92436,-4.93361 -3.59633,-6.27312 -8.7974,-15.72259 -9.31906,-16.66422 -1.27319,-2.2944 -0.74048,-5.15245 1.26877,-6.83677 l 39.62145,-33.18255 -69.82437,-69.25188 -41.96227,40.79296 c -1.69095,1.64454 -4.24397,2.0181 -6.33501,0.92616 -0.40671,-0.21662 -0.58133,-0.33598 -0.83332,-0.49071 -0.43766,-0.27851 -0.95268,-0.61891 -1.61801,-1.04552 -2.30324,-1.47876 -6.32617,-3.94557 -11.23326,-6.0764 -4.90046,-2.13303 -10.65193,-3.87704 -16.22214,-4.06271 -2.9332,-0.10389 -5.27181,-2.52428 -5.27181,-5.4597 l 0,-66.04016 -100.79431,0 0,66.04016 c -0.0133,1.25109 -0.37577,2.05789 -0.64323,2.57954 -0.28293,0.52166 -0.52828,0.82006 -0.72501,1.04994 -0.39124,0.43987 -0.62996,0.61671 -0.82006,0.77143 -0.36693,0.27851 -0.56807,0.39125 -0.76701,0.51282 -0.36692,0.21441 -0.67638,0.37356 -1.04552,0.55702 -1.33508,0.66091 -3.37307,1.56717 -5.84651,2.64364 -3.69137,1.60696 -8.25364,3.53443 -12.02016,5.13034 -1.88106,0.79575 -3.56317,1.50971 -4.8231,2.04904 -0.62996,0.26967 -1.15383,0.49734 -1.53181,0.66312 l -0.43987,0.19673 -0.0951,0.0464 -0.0221,-0.042 0.0221,0.042 0,0 -0.0221,-0.042 0.0221,0.042 -1.2334,-2.48228 1.28866,2.45354 -0.0553,0.0287 -1.2334,-2.48228 1.28866,2.45354 c -2.21924,1.16488 -4.94245,0.67418 -6.61352,-1.19361 l -36.88939,-41.23947 -69.03305,67.39515 40.26909,36.87613 c 1.86116,1.70422 2.31208,4.48269 1.0831,6.68646 -0.0531,0.0973 -0.32493,0.59902 -0.69406,1.28646 -1.31298,2.4447 -4.08483,7.62367 -6.587,12.20583 -1.2533,2.2944 -2.43586,4.43407 -3.35981,6.04987 -0.46419,0.81122 -0.85764,1.48097 -1.20246,2.03357 -0.17904,0.28293 -0.33156,0.52387 -0.55702,0.83553 -0.12378,0.16578 -0.24536,0.33598 -0.54155,0.65649 -0.16136,0.16578 -0.34924,0.37135 -0.78469,0.69628 -0.22546,0.16136 -0.51282,0.35808 -0.99247,0.57912 -0.47745,0.20778 -1.17373,0.47745 -2.26124,0.48629 l -66.68119,0 0,100.79874 66.68119,0 c 2.95088,0 5.37127,2.35186 5.45969,5.30054 0.18125,6.86551 2.69006,15.01968 5.34254,21.46742 1.31961,3.23382 2.6569,6.05429 3.70684,8.14975 0.52608,1.04773 0.97921,1.91421 1.32624,2.56628 0.17463,0.32714 0.32051,0.59902 0.43987,0.82006 0.12158,0.22546 0.20557,0.37797 0.29841,0.55702 1.0411,2.00704 0.74048,4.44511 -0.75817,6.13607 l -41.61744,47.00861 68.74791,69.61218 38.73066,-40.46803 c 1.68653,-1.7639 4.3368,-2.19493 6.49637,-1.05436 l -0.82669,1.56496 0.80679,-1.57602 0.0199,0.0111 -0.82669,1.56496 0.80679,-1.57602 c 0,0.002 0.19231,0.0951 0.44429,0.21441 0.97921,0.46419 3.07909,1.43234 5.62769,2.60607 3.83062,1.7639 8.70456,4.00745 12.65233,5.87524 1.97831,0.935 3.71569,1.77053 5.02204,2.42923 0.6587,0.33378 1.19803,0.61229 1.68432,0.8908 0.25199,0.14367 0.47524,0.27188 0.81564,0.50839 0.17904,0.1282 0.38019,0.26304 0.75375,0.61449 0.18788,0.18567 0.42882,0.41777 0.76922,0.9129 0.16799,0.24977 0.36471,0.57249 0.55702,1.05436 0.18788,0.47965 0.3824,1.14056 0.38682,2.02252 l 0,46.33222 100.79431,0 0,-46.33222 c 0,-2.95089 2.32534,-5.35802 5.27402,-5.4597 6.69752,-0.20556 13.72659,-2.92215 19.17744,-5.81998 2.72764,-1.44119 5.05961,-2.90226 6.80804,-4.0583 0.87532,-0.57913 1.60254,-1.07868 2.1883,-1.48097 0.29398,-0.20115 0.55039,-0.37798 0.79795,-0.54155 0.26525,-0.17241 0.4465,-0.30282 0.92395,-0.56144 2.04462,-1.07205 4.56227,-0.73606 6.25544,0.83553 l 43.26861,40.19615 69.86416,-71.31418 -41.04052,-43.90079 c -1.58928,-1.6998 -1.92969,-4.20197 -0.85101,-6.26428 0.11715,-0.22104 0.20557,-0.37798 0.33819,-0.61228 0.46861,-0.83995 1.37266,-2.44249 2.50439,-4.65952 1.69316,-3.31119 3.86378,-7.94861 5.61663,-12.99717 1.76169,-5.03971 3.07688,-10.50161 3.21171,-15.27608 0.0906,-2.94868 2.51102,-5.29833 5.4619,-5.29833 l 45.76858,0 0,-100.79874 -45.76858,0 0,-5.4619"
       transform="matrix(1.1727518,0,0,1.0355478,-89.028604,73.598184)" /><path
       inkscape:connector-curvature="0"
       id="path646"
       style="fill:#ffffff;fill-opacity:1;fill-rule:nonzero;stroke:none;filter:url(#filter6133)"
       d="m 946.17468,429.87433 c 0,13.86806 -11.22884,25.1168 -25.11016,25.1168 -13.88132,0 -25.13227,-11.24874 -25.13227,-25.1168 0,-13.86142 11.25095,-25.119 25.13227,-25.119 13.88132,0 25.11016,11.25758 25.11016,25.119 z m 74.24742,20.32907 0,-46.88483 -21.50724,0 c -0.19893,0 -4.9513,-8.64267 -5.28286,-9.24169 l 18.5453,-15.54354 -32.69187,-32.41775 -19.20839,18.68894 c -0.64101,-0.33377 -6.83014,-4.92035 -13.52766,-5.15686 l 0,-30.00842 -46.90472,0 0,30.00842 c 0,0.23651 -10.16784,4.4208 -10.80886,4.75678 l -17.08641,-19.09124 -32.4089,31.64853 18.68894,17.11514 c -0.33819,0.59902 -4.92698,9.24169 -5.12813,9.24169 l -30.27366,0 0,46.88483 30.27366,0 c 0.20115,6.69751 4.591,14.43392 4.92035,15.07052 l -18.88346,21.33479 32.01546,32.41775 17.88215,-18.68894 c 0.64102,0.33819 10.80886,4.92477 10.80886,5.15686 l 0,21.73709 46.90472,0 0,-21.73709 c 6.69752,-0.23209 12.88665,-5.15686 13.52766,-5.48842 l 19.7831,18.38391 32.42656,-33.08529 -18.72207,-20.03066 c 0.33156,-0.6366 4.9513,-8.37301 5.15023,-15.07052 l 21.50724,0"
       transform="matrix(1.1727518,0,0,1.0355478,-89.028604,73.598184)" /><path
       inkscape:connector-curvature="0"
       id="path648"
       style="fill:#cccccc;fill-opacity:1;fill-rule:nonzero;stroke:none;filter:url(#filter6129)"
       d="m 921.06452,454.99113 c 13.88132,0 25.11016,-11.24874 25.11016,-25.1168 0,-13.86142 -11.22884,-25.119 -25.11016,-25.119 -13.88132,0 -25.13227,11.25758 -25.13227,25.119 0,13.86806 11.25095,25.1168 25.13227,25.1168"
       transform="matrix(1.1727518,0,0,1.0355478,-89.028604,73.598184)" /><path
       inkscape:connector-curvature="0"
       id="path650"
       style="fill:#cccccc;fill-opacity:1;fill-rule:nonzero;stroke:none;filter:url(#filter6125)"
       d="m 998.91486,403.31857 0,-5.4619 21.50724,0 c 1.4367,0 2.8514,0.58133 3.8682,1.60033 1.0168,1.01678 1.5915,2.4226 1.5915,3.86157 l 0,46.88483 c 0,1.43897 -0.5747,2.847 -1.5915,3.86378 -1.0168,1.01678 -2.4315,1.60033 -3.8682,1.60033 l -21.50724,0 0,-5.46411 5.45974,0.16578 c -0.1548,4.52469 -1.6136,8.58962 -2.962,11.7947 -0.6852,1.5937 -1.3704,2.95531 -1.90093,3.96988 -0.26525,0.50618 -0.48629,0.92837 -0.66312,1.23783 l -0.22104,0.37134 -0.0442,0.0973 0,0.009 -2.45354,-1.33287 2.47565,1.29751 -0.0221,0.0354 -2.45354,-1.33287 2.47565,1.29751 -4.84078,-2.53975 3.97872,-3.73116 18.72213,20.03066 c 1.9893,2.13082 1.9672,5.47074 -0.089,7.55294 l -32.40443,33.08529 c -2.07778,2.11978 -5.45969,2.19935 -7.62589,0.18125 l -19.78309,-18.38391 3.71347,-4.00303 2.49776,4.85404 -1.98937,-3.84831 2.29882,3.68253 -0.30945,0.16578 -1.98937,-3.84831 2.29882,3.68253 -1.14941,-1.83243 1.17152,1.81253 -0.0221,0.0199 -1.14941,-1.83243 1.17152,1.81253 -0.0442,0.0199 c -0.22104,0.15252 -0.95047,0.66533 -1.87884,1.25551 -1.41466,0.89742 -3.38192,2.05567 -5.79126,3.05035 -2.40933,0.98584 -5.26075,1.83684 -8.46583,1.954 l -0.17684,-5.4597 5.4597,0 0,21.73709 c 0,1.43897 -0.59681,2.84479 -1.6136,3.86157 -1.01678,1.019 -2.40933,1.60033 -3.8461,1.60033 l -46.90472,0 c -1.43676,0 -2.82931,-0.58133 -3.8461,-1.60033 -1.01678,-1.01678 -1.61359,-2.4226 -1.61359,-3.86157 l 0,-21.73709 5.45969,0 -4.81867,2.54639 c -0.26525,-0.50177 -0.61891,-1.27983 -0.64102,-2.54639 l 5.45969,0 -4.81867,2.54639 4.79657,-2.53312 -4.13345,3.52559 c -0.17683,-0.21441 -0.39787,-0.49071 -0.66312,-0.99247 l 4.79657,-2.53312 -4.13345,3.52559 4.04503,-3.45044 -3.3377,4.13124 c -0.15473,-0.12599 -0.35367,-0.2763 -0.70733,-0.6808 l 4.04503,-3.45044 -3.3377,4.13124 2.91773,-3.6118 -2.45355,3.93673 c -0.0884,-0.0486 -0.17683,-0.10168 -0.46418,-0.32493 l 2.91773,-3.6118 -2.45355,3.93673 1.12731,-1.83684 -1.061,1.88547 -0.0663,-0.0486 1.12731,-1.83684 -1.061,1.88547 c 0,-0.009 -0.26525,-0.1481 -0.59681,-0.31167 -1.21572,-0.59681 -3.51453,-1.66885 -5.526,-2.59943 -1.01678,-0.4664 -1.96726,-0.90185 -2.69669,-1.24225 -0.37577,-0.1702 -0.68522,-0.31608 -0.92837,-0.43324 l -0.35366,-0.16135 -0.35367,-0.17905 2.56407,-4.82309 3.95662,3.77536 -17.88215,18.68895 c -1.03889,1.06983 -2.43144,1.67548 -3.91241,1.68653 -1.48097,0.0111 -2.89563,-0.57028 -3.93452,-1.62464 L 835.2501,490.44818 c -2.01368,-2.0402 -2.1043,-5.3116 -0.20336,-7.46011 l 18.88567,-21.33479 4.08924,3.62064 -4.84741,2.51764 1.22015,-0.63438 -1.21351,0.64544 -0.007,-0.0111 1.22015,-0.63438 -1.21351,0.64544 c -0.0221,-0.042 -0.16357,-0.29841 -0.33599,-0.62334 -0.62112,-1.17372 -1.82358,-3.53443 -2.92657,-6.47868 -1.09636,-2.95752 -2.1463,-6.48311 -2.27892,-10.33142 l 5.4619,-0.16578 0,5.46411 -30.27366,0 c -1.43897,0 -2.84479,-0.58355 -3.86378,-1.60033 -1.01679,-1.01678 -1.59812,-2.42481 -1.59812,-3.86378 l 0,-46.88483 c 0,-1.43897 0.58133,-2.84479 1.59812,-3.86157 1.01899,-1.019 2.42481,-1.60033 3.86378,-1.60033 l 30.27366,0 0,5.45085 -2.42039,-4.88499 c 0.47524,-0.22325 1.19362,-0.54818 2.42039,-0.56586 l 0,5.45085 -2.42039,-4.88499 2.39608,4.83857 -3.77758,-3.85936 c 0.22988,-0.19894 0.46197,-0.49513 1.3815,-0.97921 l 2.39608,4.83857 -3.77758,-3.85936 3.49243,3.56538 -4.02072,-2.95973 c 0.0796,-0.0973 0.14589,-0.21883 0.52829,-0.60565 l 3.49243,3.56538 -4.02072,-2.95973 2.54418,1.87221 -2.63922,-1.73738 0.095,-0.13483 2.54418,1.87221 -2.63922,-1.73738 0.34261,0.22325 -0.34482,-0.21883 0.002,-0.004 0.34261,0.22325 -0.34482,-0.21883 c 0.0199,-0.0287 0.15693,-0.25419 0.3205,-0.54376 0.59681,-1.03446 1.6556,-2.97962 2.5707,-4.6772 0.45977,-0.85322 0.88858,-1.65117 1.22014,-2.26788 0.16799,-0.30945 0.30946,-0.57249 0.41998,-0.77806 0.11494,-0.21441 0.18125,-0.33598 0.26304,-0.48187 l 4.7612,2.67901 -3.68916,4.02735 -18.69115,-17.11293 c -1.1052,-1.01457 -1.74843,-2.44249 -1.77275,-3.94114 -0.0221,-1.50087 0.5725,-2.94868 1.64675,-3.99641 l 32.42438,-31.65074 c 1.061,-1.03226 2.51986,-1.60033 4.00083,-1.54949 1.48097,0.0486 2.89563,0.71396 3.89031,1.81695 l 17.0643,19.09124 -4.06714,3.64274 -2.54196,-4.83636 0.30945,-0.15473 c 0.28736,-0.13041 0.5526,-0.24977 0.95048,-0.42218 1.37045,-0.58134 3.82399,-1.61581 5.96808,-2.5287 1.06099,-0.45535 2.03357,-0.87974 2.69669,-1.17815 0.30946,-0.14809 0.5747,-0.26967 0.64102,-0.30724 l 0,0.0221 0,-0.0221 0,0.0221 0,-0.0199 1.90094,3.47254 -2.25461,-3.25371 c 0.26525,-0.17241 0.30946,-0.19673 0.35367,-0.21883 l 1.90094,3.47254 -2.25461,-3.25371 2.96194,4.28376 -3.64716,-3.71569 c 0.37577,-0.35808 0.5526,-0.4686 0.68522,-0.56807 l 2.96194,4.28376 -3.64716,-3.71569 3.77978,3.85715 -4.55342,-2.91331 c 0.33156,-0.50839 0.5747,-0.75374 0.77364,-0.94384 l 3.77978,3.85715 -4.55342,-2.91331 4.57553,2.93542 -5.10603,-1.87664 c 0.17683,-0.47081 0.37577,-0.80016 0.5305,-1.05878 l 4.57553,2.93542 -5.10603,-1.87664 5.12813,1.87885 -5.45969,0 c 0,-0.7847 0.17683,-1.41024 0.33156,-1.87885 l 5.12813,1.87885 -5.45969,0 0,-30.00842 c 0,-1.43897 0.59681,-2.84478 1.61359,-3.86378 1.01679,-1.01678 2.40934,-1.59812 3.8461,-1.59812 l 46.90472,0 c 1.43677,0 2.82932,0.58134 3.8461,1.60033 1.01679,1.01679 1.6136,2.4226 1.6136,3.86157 l 0,30.00842 -5.4597,0 0.17684,-5.45749 c 4.55342,0.17905 8.39952,1.69538 11.27304,3.1012 1.43677,0.71175 2.63038,1.41465 3.51454,1.95841 0.41998,0.26967 0.79575,0.50397 1.03889,0.66312 l 0.26525,0.16578 0,0.0111 -1.83463,2.97741 1.61359,-3.10562 c 0.22104,0.11273 0.22104,0.12821 0.22104,0.12821 l -1.83463,2.97741 1.61359,-3.10562 -2.51986,4.84299 -3.82399,-3.91462 19.23049,-18.69115 c 2.14409,-2.07778 5.54811,-2.06231 7.64799,0.0398 l 32.69188,32.41775 c 1.1052,1.08531 1.6799,2.56849 1.6136,4.10693 -0.066,1.54065 -0.7737,2.96857 -1.9452,3.95883 l -18.56737,15.54133 -3.49244,-4.1865 4.77447,-2.6569 c 0.17683,0.33156 1.43676,2.61048 2.67464,4.82752 0.6189,1.10299 1.2378,2.18608 1.6799,2.95309 0.221,0.38019 0.4199,0.68965 0.5084,0.82669 l 0.022,0.0575 -2.5641,1.70864 2.4314,-1.91199 0.1327,0.20335 -2.5641,1.70864 2.4314,-1.91199 -3.9787,3.13434 3.5145,-3.64495 c 0.2874,0.28957 0.3758,0.41556 0.4642,0.51061 l -3.9787,3.13434 3.5145,-3.64495 -3.73554,3.87263 2.91774,-4.50922 c 0.4421,0.29398 0.641,0.4885 0.8178,0.63659 l -3.73554,3.87263 2.91774,-4.50922 -2.96195,4.55785 1.98935,-5.0574 c 0.4642,0.18125 0.7516,0.35587 0.9726,0.49955 l -2.96195,4.55785 1.98935,-5.0574 -1.98935,5.07287 0,-5.45085 c 0.90627,0.007 1.54725,0.20556 1.98935,0.37798 l -1.98935,5.07287 0,-5.45085 0,10.92601 c -1.21572,-0.0177 -1.94515,-0.3404 -2.40934,-0.56144 -0.90626,-0.47524 -1.1494,-0.77143 -1.39255,-0.977 -0.39787,-0.39787 -0.50839,-0.55481 -0.61891,-0.7029 -0.19894,-0.26525 -0.28735,-0.41114 -0.39787,-0.57913 -0.37577,-0.57913 -0.79575,-1.29751 -1.32624,-2.20598 -0.75154,-1.34171 -1.67991,-2.99509 -2.45355,-4.36996 -0.75154,-1.36824 -1.37045,-2.4845 -1.45887,-2.6547 -1.28203,-2.28997 -0.75153,-5.15907 1.25993,-6.8434 l 13.96975,-11.69523 -24.62388,-24.42052 -15.3844,14.94894 c -1.70201,1.64454 -4.24397,2.0181 -6.34385,0.92837 -0.33156,-0.18788 -0.44208,-0.25419 -0.5747,-0.33819 -0.22104,-0.14367 -0.41998,-0.27851 -0.68523,-0.44871 -0.90626,-0.57913 -2.45354,-1.51855 -4.26607,-2.30987 -1.81253,-0.79795 -3.89031,-1.39255 -5.65863,-1.4456 -2.96194,-0.10168 -5.28286,-2.50881 -5.28286,-5.45969 l 0,-24.54651 -35.94113,0 0,24.54651 c -0.0221,1.25329 -0.37577,2.05788 -0.66312,2.57732 -0.26525,0.51945 -0.50839,0.81343 -0.70733,1.03889 -0.37577,0.43103 -0.61891,0.59681 -0.79574,0.74049 -0.33156,0.25861 -0.5084,0.34924 -0.64102,0.43987 -0.28735,0.15915 -0.44208,0.24314 -0.64102,0.3404 -0.68522,0.33377 -1.54728,0.71396 -2.60827,1.17593 -1.56939,0.68523 -3.49244,1.49644 -5.06182,2.16399 -0.79575,0.33377 -1.50307,0.63217 -2.01147,0.85542 -0.26524,0.11052 -0.46418,0.20336 -0.61891,0.26525 l -0.13262,0.0619 0,0.002 -1.45887,-3.07467 1.59149,3.00615 -0.13262,0.0685 -1.45887,-3.07467 1.59149,3.00615 c -2.2104,1.16488 -4.9513,0.67417 -6.6091,-1.19362 l -13.28451,-14.83842 -24.19506,23.62698 14.4295,13.21157 c 1.87442,1.71527 2.3165,4.49375 1.07205,6.70636 l -0.2542,-0.14147 0.2542,0.13926 0,0.002 -0.2542,-0.14147 0.2542,0.13926 c -0.0685,0.12599 -0.45313,0.84216 -0.93279,1.73516 -0.73165,1.3594 -1.73517,3.22277 -2.59059,4.77447 -0.42882,0.78027 -0.81785,1.47434 -1.14057,2.02915 -0.16578,0.28293 -0.30504,0.51944 -0.47524,0.78469 -0.0928,0.13926 -0.17683,0.27409 -0.37355,0.5305 -0.10831,0.13483 -0.22325,0.29398 -0.54376,0.61228 -0.17241,0.16136 -0.3824,0.36914 -0.84217,0.67417 -0.23209,0.15031 -0.5327,0.32935 -0.99247,0.5106 -0.45755,0.17684 -1.09415,0.37356 -1.9982,0.38019 l -24.81176,0 0,35.95882 24.81176,0 c 2.94868,0 5.37128,2.34965 5.45969,5.29833 0.042,2.23471 0.96595,5.40001 2.00926,7.9066 0.51502,1.26214 1.04331,2.37398 1.45444,3.19625 0.20778,0.41334 0.38461,0.75153 0.52166,1.00794 l 0.17462,0.32714 0.15031,0.27851 c 1.03225,2.00483 0.7449,4.44512 -0.75817,6.13828 l -15.49934,17.51081 24.47357,24.78302 13.99184,-14.62844 c 1.70201,-1.7639 4.35449,-2.19272 6.52069,-1.04773 l -1.65781,3.12109 1.59149,-3.15646 0.0663,0.0354 -1.65781,3.12109 1.59149,-3.15646 -0.17683,0.32493 0.17683,-0.32493 0,0 -0.17683,0.32493 0.17683,-0.32493 c 0.0442,0.0265 0.33156,0.15915 0.68523,0.32493 1.28203,0.59239 3.77978,1.73517 5.96808,2.75637 1.0831,0.51282 2.09988,0.99247 2.89563,1.38371 0.39787,0.19894 0.72943,0.36693 1.06099,0.54818 0.17683,0.0951 0.33156,0.17905 0.61891,0.35809 0.13263,0.0995 0.30946,0.19894 0.64102,0.49071 0.17683,0.15915 0.41998,0.34924 0.77364,0.80458 0.17683,0.23652 0.39787,0.54155 0.61891,1.04331 0.24315,0.49955 0.50839,1.2312 0.5305,2.30766 l 0,16.27519 35.94113,0 0,-16.27519 c 0,-2.95088 2.34302,-5.35801 5.28286,-5.45969 2.05567,-0.0486 4.64184,-0.98142 6.67541,-2.07778 1.01679,-0.54154 1.92305,-1.09857 2.58617,-1.54507 0.35367,-0.22546 0.64102,-0.42218 0.88416,-0.59238 l 0.37577,-0.25641 c 0.15473,-0.0973 0.26525,-0.17904 0.68522,-0.41114 2.05568,-1.05878 4.53133,-0.72059 6.23334,0.85101 l 15.89278,14.76327 25.04393,-25.55224 -15.16343,-16.21109 c -1.59149,-1.69759 -1.92305,-4.2086 -0.83995,-6.2687 l 0.17683,-0.33156 c 0.19894,-0.35366 0.5526,-0.97036 0.99468,-1.84568 0.66312,-1.29972 1.52518,-3.12772 2.1883,-5.05298 0.68522,-1.91863 1.1273,-3.94557 1.17151,-5.46411 0.0884,-2.94868 2.51986,-5.29833 5.45969,-5.29833 l 16.04757,0 0,-35.95882 -16.04757,0 0,-5.46411"
       transform="matrix(1.1727518,0,0,1.0355478,-89.028604,73.598184)" /><path
       inkscape:connector-curvature="0"
       id="path316"
       style="fill:#ffd248;fill-opacity:1;fill-rule:nonzero;stroke:none;filter:url(#filter6121)"
       d="m 590.69184,675.80724 c 71.23461,0 128.99462,-57.75779 128.99462,-128.99462 0,-71.2324 -57.76001,-128.99461 -128.99462,-128.99461 -71.23461,0 -128.95704,57.76221 -128.95704,128.99461 0,71.23683 57.72243,128.99462 128.95704,128.99462"
       transform="matrix(1.1727518,0,0,1.0355478,-89.028604,73.598184)" /><path
       inkscape:connector-curvature="0"
       id="path318"
       style="fill:#ececec;fill-opacity:1;fill-rule:nonzero;stroke:none;filter:url(#filter6117)"
       d="m 719.68646,546.81262 -5.46191,0 c -0.002,-34.12418 -13.81943,-64.97254 -36.18427,-87.34622 -22.37368,-22.36485 -53.22205,-36.18207 -87.34844,-36.18428 -34.12418,0.002 -64.9637,13.81943 -87.32855,36.18428 -22.356,22.37147 -36.16438,53.21983 -36.16659,87.34622 0.002,34.1286 13.81059,64.97697 36.16659,87.34844 22.36485,22.36485 53.20216,36.17986 87.32855,36.18428 34.12639,-0.002 64.97476,-13.81943 87.34844,-36.18428 22.36484,-22.37368 36.18206,-53.22205 36.18427,-87.34844 l 10.92602,0 c -0.004,74.25624 -60.20471,134.45431 -134.45873,134.45873 -74.25402,0 -134.41673,-60.20471 -134.42115,-134.45873 0.004,-74.2496 60.16713,-134.45209 134.42115,-134.45651 74.25623,0 134.45431,60.2047 134.45873,134.45651 l -5.46411,0"
       transform="matrix(1.1727518,0,0,1.0355478,-89.028604,73.598184)" /><path
       inkscape:connector-curvature="0"
       id="path320"
       style="fill:#ffffff;fill-opacity:1;fill-rule:nonzero;stroke:none;filter:url(#filter6113)"
       d="m 685.08925,547.11545 c 0,-52.96343 -42.93705,-95.90048 -95.90048,-95.90048 -52.96565,0 -95.9027,42.93705 -95.9027,95.90048 0,52.96785 42.93705,95.90269 95.9027,95.90269 52.96343,0 95.90048,-42.93484 95.90048,-95.90269"
       transform="matrix(1.1727518,0,0,1.0355478,-89.028604,73.598184)" /><path
       inkscape:connector-curvature="0"
       id="path646-6"
       style="fill:#ffffff;fill-opacity:1;fill-rule:nonzero;stroke:none;filter:url(#filter6133-3)"
       d="m 283.87312,689.76181 c 0,13.8681 -11.22884,25.1168 -25.11016,25.1168 -13.88132,0 -25.13227,-11.2487 -25.13227,-25.1168 0,-13.8614 11.25095,-25.119 25.13227,-25.119 13.88132,0 25.11016,11.2576 25.11016,25.119 z m 74.24742,20.3291 0,-46.8848 -21.50724,0 c -0.19893,0 -4.9513,-8.6427 -5.28286,-9.2417 l 18.5453,-15.5436 -32.69187,-32.41771 -19.20839,18.68891 c -0.64101,-0.3337 -6.83014,-4.9203 -13.52766,-5.1568 l 0,-30.00845 -46.90472,0 0,30.00845 c 0,0.2365 -10.16784,4.4208 -10.80886,4.7567 l -17.08641,-19.09119 -32.4089,31.64849 18.68894,17.1152 c -0.33819,0.599 -4.92698,9.2417 -5.12813,9.2417 l -30.27366,0 0,46.8848 30.27366,0 c 0.20115,6.6975 4.591,14.4339 4.92035,15.0705 l -18.88346,21.3348 32.01546,32.4178 17.88215,-18.689 c 0.64102,0.3382 10.80886,4.9248 10.80886,5.1569 l 0,21.7371 46.90472,0 0,-21.7371 c 6.69752,-0.2321 12.88665,-5.1569 13.52766,-5.4884 l 19.7831,18.3839 32.42656,-33.0853 -18.72207,-20.0307 c 0.33156,-0.6366 4.9513,-8.373 5.15023,-15.0705 l 21.50724,0"
       transform="matrix(1.1727518,0,0,1.0355478,-89.028604,73.598184)" /><path
       inkscape:connector-curvature="0"
       id="path648-2"
       style="fill:#cccccc;fill-opacity:1;fill-rule:nonzero;stroke:none;filter:url(#filter6129-7)"
       d="m 258.76296,714.87861 c 13.88132,0 25.11016,-11.2487 25.11016,-25.1168 0,-13.8614 -11.22884,-25.119 -25.11016,-25.119 -13.88132,0 -25.13227,11.2576 -25.13227,25.119 0,13.8681 11.25095,25.1168 25.13227,25.1168"
       transform="matrix(1.1727518,0,0,1.0355478,-89.028604,73.598184)" /><path
       inkscape:connector-curvature="0"
       id="path650-9"
       style="fill:#cccccc;fill-opacity:1;fill-rule:nonzero;stroke:none;filter:url(#filter6125-3)"
       d="m 336.6133,663.20611 0,-5.4619 21.50724,0 c 1.4367,0 2.8514,0.5813 3.8682,1.6003 1.0168,1.0168 1.5915,2.4226 1.5915,3.8616 l 0,46.8848 c 0,1.439 -0.5747,2.847 -1.5915,3.8638 -1.0168,1.0168 -2.4315,1.6003 -3.8682,1.6003 l -21.50724,0 0,-5.4641 5.45974,0.1658 c -0.1548,4.5247 -1.6136,8.5896 -2.962,11.7947 -0.6852,1.5937 -1.3704,2.9553 -1.90093,3.9699 -0.26525,0.5061 -0.48629,0.9283 -0.66312,1.2378 l -0.22104,0.3713 -0.0442,0.097 0,0.01 -2.45354,-1.3328 2.47565,1.2975 -0.0221,0.035 -2.45354,-1.3329 2.47565,1.2975 -4.84078,-2.5397 3.97872,-3.7312 18.72213,20.0307 c 1.9893,2.1308 1.9672,5.4707 -0.089,7.5529 l -32.40443,33.0853 c -2.07778,2.1198 -5.45969,2.1993 -7.62589,0.1812 l -19.78309,-18.3839 3.71347,-4.003 2.49776,4.854 -1.98937,-3.8483 2.29882,3.6826 -0.30945,0.1657 -1.98937,-3.8483 2.29882,3.6826 -1.14941,-1.8325 1.17152,1.8126 -0.0221,0.02 -1.14941,-1.8325 1.17152,1.8126 -0.0442,0.02 c -0.22104,0.1525 -0.95047,0.6653 -1.87884,1.2555 -1.41466,0.8974 -3.38192,2.0556 -5.79126,3.0503 -2.40933,0.9859 -5.26075,1.8369 -8.46583,1.954 l -0.17684,-5.4597 5.4597,0 0,21.7371 c 0,1.439 -0.59681,2.8448 -1.6136,3.8616 -1.01678,1.019 -2.40933,1.6003 -3.8461,1.6003 l -46.90472,0 c -1.43676,0 -2.82931,-0.5813 -3.8461,-1.6003 -1.01678,-1.0168 -1.61359,-2.4226 -1.61359,-3.8616 l 0,-21.7371 5.45969,0 -4.81867,2.5464 c -0.26525,-0.5018 -0.61891,-1.2798 -0.64102,-2.5464 l 5.45969,0 -4.81867,2.5464 4.79657,-2.5331 -4.13345,3.5256 c -0.17683,-0.2144 -0.39787,-0.4907 -0.66312,-0.9925 l 4.79657,-2.5331 -4.13345,3.5256 4.04503,-3.4505 -3.3377,4.1313 c -0.15473,-0.126 -0.35367,-0.2763 -0.70733,-0.6808 l 4.04503,-3.4505 -3.3377,4.1313 2.91773,-3.6118 -2.45355,3.9367 c -0.0884,-0.049 -0.17683,-0.1017 -0.46418,-0.3249 l 2.91773,-3.6118 -2.45355,3.9367 1.12731,-1.8368 -1.061,1.8854 -0.0663,-0.049 1.12731,-1.8368 -1.061,1.8855 c 0,-0.01 -0.26525,-0.1481 -0.59681,-0.3117 -1.21572,-0.5968 -3.51453,-1.6689 -5.526,-2.5994 -1.01678,-0.4664 -1.96726,-0.9019 -2.69669,-1.2423 -0.37577,-0.1702 -0.68522,-0.3161 -0.92837,-0.4332 l -0.35366,-0.1614 -0.35367,-0.179 2.56407,-4.8231 3.95662,3.7753 -17.88215,18.689 c -1.03889,1.0698 -2.43144,1.6755 -3.91241,1.6865 -1.48097,0.011 -2.89563,-0.5703 -3.93452,-1.6246 l -32.01279,-32.4158 c -2.01368,-2.0402 -2.1043,-5.3116 -0.20336,-7.4601 l 18.88567,-21.3348 4.08924,3.6206 -4.84741,2.5177 1.22015,-0.6344 -1.21351,0.6454 -0.007,-0.011 1.22015,-0.6344 -1.21351,0.6455 c -0.0221,-0.042 -0.16357,-0.2984 -0.33599,-0.6234 -0.62112,-1.1737 -1.82358,-3.5344 -2.92657,-6.4786 -1.09636,-2.9576 -2.1463,-6.4831 -2.27892,-10.3315 l 5.4619,-0.1657 0,5.4641 -30.27366,0 c -1.43897,0 -2.84479,-0.5836 -3.86378,-1.6004 -1.01679,-1.0167 -1.59812,-2.4248 -1.59812,-3.8637 l 0,-46.8849 c 0,-1.4389 0.58133,-2.8448 1.59812,-3.8615 1.01899,-1.019 2.42481,-1.6004 3.86378,-1.6004 l 30.27366,0 0,5.4509 -2.42039,-4.885 c 0.47524,-0.2233 1.19362,-0.5482 2.42039,-0.5659 l 0,5.4509 -2.42039,-4.885 2.39608,4.8386 -3.77758,-3.8594 c 0.22988,-0.1989 0.46197,-0.4951 1.3815,-0.9792 l 2.39608,4.8386 -3.77758,-3.8594 3.49243,3.5654 -4.02072,-2.9597 c 0.0796,-0.097 0.14589,-0.2189 0.52829,-0.6057 l 3.49243,3.5654 -4.02072,-2.9597 2.54418,1.8722 -2.63922,-1.7374 0.095,-0.1348 2.54418,1.8722 -2.63922,-1.7374 0.34261,0.2232 -0.34482,-0.2188 0.002,0 0.34261,0.2233 -0.34482,-0.2189 c 0.0199,-0.029 0.15693,-0.2542 0.3205,-0.5437 0.59681,-1.0345 1.6556,-2.9797 2.5707,-4.6772 0.45977,-0.8533 0.88858,-1.6512 1.22014,-2.2679 0.16799,-0.3095 0.30946,-0.5725 0.41998,-0.7781 0.11494,-0.2144 0.18125,-0.336 0.26304,-0.4818 l 4.7612,2.679 -3.68916,4.0273 -18.69115,-17.1129 c -1.1052,-1.0146 -1.74843,-2.4425 -1.77275,-3.9412 -0.0221,-1.5008 0.5725,-2.9486 1.64675,-3.9964 l 32.42438,-31.65071 c 1.061,-1.03226 2.51986,-1.60033 4.00083,-1.54949 1.48097,0.0486 2.89563,0.71396 3.89031,1.81695 l 17.0643,19.09125 -4.06714,3.6427 -2.54196,-4.8363 0.30945,-0.1548 c 0.28736,-0.1304 0.5526,-0.2497 0.95048,-0.4221 1.37045,-0.5814 3.82399,-1.6158 5.96808,-2.5287 1.06099,-0.4554 2.03357,-0.8798 2.69669,-1.1782 0.30946,-0.1481 0.5747,-0.2697 0.64102,-0.3072 l 0,0.022 0,-0.022 0,0.022 0,-0.02 1.90094,3.4725 -2.25461,-3.2537 c 0.26525,-0.1724 0.30946,-0.1967 0.35367,-0.2188 l 1.90094,3.4725 -2.25461,-3.2537 2.96194,4.2838 -3.64716,-3.7157 c 0.37577,-0.3581 0.5526,-0.4686 0.68522,-0.5681 l 2.96194,4.2838 -3.64716,-3.7157 3.77978,3.8571 -4.55342,-2.9133 c 0.33156,-0.5084 0.5747,-0.7537 0.77364,-0.9438 l 3.77978,3.8571 -4.55342,-2.9133 4.57553,2.9354 -5.10603,-1.8766 c 0.17683,-0.4708 0.37577,-0.8002 0.5305,-1.0588 l 4.57553,2.9354 -5.10603,-1.8766 5.12813,1.8788 -5.45969,0 c 0,-0.7847 0.17683,-1.4102 0.33156,-1.8788 l 5.12813,1.8788 -5.45969,0 0,-30.00838 c 0,-1.43897 0.59681,-2.84478 1.61359,-3.86378 1.01679,-1.01678 2.40934,-1.59812 3.8461,-1.59812 l 46.90472,0 c 1.43677,0 2.82932,0.58134 3.8461,1.60033 1.01679,1.01679 1.6136,2.4226 1.6136,3.86157 l 0,30.00838 -5.4597,0 0.17684,-5.4575 c 4.55342,0.1791 8.39952,1.6954 11.27304,3.1012 1.43677,0.7118 2.63038,1.4147 3.51454,1.9585 0.41998,0.2696 0.79575,0.5039 1.03889,0.6631 l 0.26525,0.1658 0,0.011 -1.83463,2.9774 1.61359,-3.1057 c 0.22104,0.1128 0.22104,0.1283 0.22104,0.1283 l -1.83463,2.9774 1.61359,-3.1057 -2.51986,4.843 -3.82399,-3.9146 19.23049,-18.69113 c 2.14409,-2.07778 5.54811,-2.06231 7.64799,0.0398 l 32.69188,32.41773 c 1.1052,1.0853 1.6799,2.5685 1.6136,4.1069 -0.066,1.5407 -0.7737,2.9686 -1.9452,3.9589 l -18.56737,15.5413 -3.49244,-4.1865 4.77447,-2.6569 c 0.17683,0.3316 1.43676,2.6105 2.67464,4.8275 0.6189,1.103 1.2378,2.1861 1.6799,2.9531 0.221,0.3802 0.4199,0.6897 0.5084,0.8267 l 0.022,0.057 -2.5641,1.7086 2.4314,-1.9119 0.1327,0.2033 -2.5641,1.7086 2.4314,-1.9119 -3.9787,3.1343 3.5145,-3.645 c 0.2874,0.2896 0.3758,0.4156 0.4642,0.5107 l -3.9787,3.1343 3.5145,-3.645 -3.73554,3.8727 2.91774,-4.5092 c 0.4421,0.2939 0.641,0.4885 0.8178,0.6365 l -3.73554,3.8727 2.91774,-4.5092 -2.96195,4.5578 1.98935,-5.0574 c 0.4642,0.1813 0.7516,0.3559 0.9726,0.4996 l -2.96195,4.5578 1.98935,-5.0574 -1.98935,5.0729 0,-5.4509 c 0.90627,0.01 1.54725,0.2056 1.98935,0.378 l -1.98935,5.0729 0,-5.4509 0,10.926 c -1.21572,-0.018 -1.94515,-0.3404 -2.40934,-0.5614 -0.90626,-0.4752 -1.1494,-0.7714 -1.39255,-0.977 -0.39787,-0.3979 -0.50839,-0.5548 -0.61891,-0.7029 -0.19894,-0.2653 -0.28735,-0.4111 -0.39787,-0.5791 -0.37577,-0.5792 -0.79575,-1.2975 -1.32624,-2.206 -0.75154,-1.3417 -1.67991,-2.9951 -2.45355,-4.37 -0.75154,-1.3682 -1.37045,-2.4845 -1.45887,-2.6547 -1.28203,-2.2899 -0.75153,-5.159 1.25993,-6.8434 l 13.96975,-11.6952 -24.62388,-24.4205 -15.3844,14.9489 c -1.70201,1.6446 -4.24397,2.0181 -6.34385,0.9284 -0.33156,-0.1879 -0.44208,-0.2542 -0.5747,-0.3382 -0.22104,-0.1437 -0.41998,-0.2785 -0.68523,-0.4487 -0.90626,-0.5791 -2.45354,-1.5186 -4.26607,-2.3099 -1.81253,-0.7979 -3.89031,-1.3925 -5.65863,-1.4456 -2.96194,-0.1017 -5.28286,-2.5088 -5.28286,-5.4597 l 0,-24.54648 -35.94113,0 0,24.54648 c -0.0221,1.2533 -0.37577,2.0579 -0.66312,2.5773 -0.26525,0.5195 -0.50839,0.8135 -0.70733,1.0389 -0.37577,0.4311 -0.61891,0.5968 -0.79574,0.7405 -0.33156,0.2586 -0.5084,0.3493 -0.64102,0.4399 -0.28735,0.1591 -0.44208,0.2431 -0.64102,0.3404 -0.68522,0.3338 -1.54728,0.714 -2.60827,1.1759 -1.56939,0.6853 -3.49244,1.4965 -5.06182,2.164 -0.79575,0.3338 -1.50307,0.6322 -2.01147,0.8554 -0.26524,0.1106 -0.46418,0.2034 -0.61891,0.2653 l -0.13262,0.062 0,0 -1.45887,-3.0747 1.59149,3.0062 -0.13262,0.068 -1.45887,-3.0747 1.59149,3.0061 c -2.2104,1.1649 -4.9513,0.6742 -6.6091,-1.1936 l -13.28451,-14.83839 -24.19506,23.62699 14.4295,13.2116 c 1.87442,1.7152 2.3165,4.4937 1.07205,6.7063 l -0.2542,-0.1415 0.2542,0.1393 0,0 -0.2542,-0.1415 0.2542,0.1393 c -0.0685,0.126 -0.45313,0.8422 -0.93279,1.7352 -0.73165,1.3594 -1.73517,3.2227 -2.59059,4.7744 -0.42882,0.7803 -0.81785,1.4744 -1.14057,2.0292 -0.16578,0.2829 -0.30504,0.5194 -0.47524,0.7847 -0.0928,0.1392 -0.17683,0.2741 -0.37355,0.5305 -0.10831,0.1348 -0.22325,0.2939 -0.54376,0.6122 -0.17241,0.1614 -0.3824,0.3692 -0.84217,0.6742 -0.23209,0.1503 -0.5327,0.3294 -0.99247,0.5106 -0.45755,0.1769 -1.09415,0.3736 -1.9982,0.3802 l -24.81176,0 0,35.9588 24.81176,0 c 2.94868,0 5.37128,2.3497 5.45969,5.2984 0.042,2.2347 0.96595,5.4 2.00926,7.9066 0.51502,1.2621 1.04331,2.3739 1.45444,3.1962 0.20778,0.4133 0.38461,0.7515 0.52166,1.0079 l 0.17462,0.3272 0.15031,0.2785 c 1.03225,2.0048 0.7449,4.4451 -0.75817,6.1383 l -15.49934,17.5108 24.47357,24.783 13.99184,-14.6284 c 1.70201,-1.7639 4.35449,-2.1928 6.52069,-1.0478 l -1.65781,3.1211 1.59149,-3.1564 0.0663,0.035 -1.65781,3.1211 1.59149,-3.1565 -0.17683,0.3249 0.17683,-0.3249 0,0 -0.17683,0.3249 0.17683,-0.3249 c 0.0442,0.026 0.33156,0.1591 0.68523,0.3249 1.28203,0.5924 3.77978,1.7352 5.96808,2.7564 1.0831,0.5128 2.09988,0.9925 2.89563,1.3837 0.39787,0.1989 0.72943,0.3669 1.06099,0.5482 0.17683,0.095 0.33156,0.179 0.61891,0.3581 0.13263,0.099 0.30946,0.1989 0.64102,0.4907 0.17683,0.1591 0.41998,0.3492 0.77364,0.8046 0.17683,0.2365 0.39787,0.5415 0.61891,1.0433 0.24315,0.4995 0.50839,1.2312 0.5305,2.3076 l 0,16.2752 35.94113,0 0,-16.2752 c 0,-2.9508 2.34302,-5.358 5.28286,-5.4597 2.05567,-0.049 4.64184,-0.9814 6.67541,-2.0777 1.01679,-0.5416 1.92305,-1.0986 2.58617,-1.5451 0.35367,-0.2255 0.64102,-0.4222 0.88416,-0.5924 l 0.37577,-0.2564 c 0.15473,-0.097 0.26525,-0.179 0.68522,-0.4111 2.05568,-1.0588 4.53133,-0.7206 6.23334,0.851 l 15.89278,14.7632 25.04393,-25.5522 -15.16343,-16.2111 c -1.59149,-1.6976 -1.92305,-4.2086 -0.83995,-6.2687 l 0.17683,-0.3315 c 0.19894,-0.3537 0.5526,-0.9704 0.99468,-1.8457 0.66312,-1.2997 1.52518,-3.1277 2.1883,-5.053 0.68522,-1.9186 1.1273,-3.9456 1.17151,-5.4641 0.0884,-2.9487 2.51986,-5.2983 5.45969,-5.2983 l 16.04757,0 0,-35.9589 -16.04757,0 0,-5.4641"
       transform="matrix(1.1727518,0,0,1.0355478,-89.028604,73.598184)" /><path
       inkscape:connector-curvature="0"
       d="m 80.847795,253.96591 -15.488108,0 -0.154634,-41.16514 Q 48.942508,212.52699 32.679962,209.5185 16.417417,206.37298 0,200.21869 l 0,-24.61702 q 15.797931,8.75273 31.905604,13.26585 16.262546,4.37636 33.4544,4.51311 l 0,-62.36319 Q 31.131167,126.09399 15.488108,114.33256 0,102.57107 0,82.056839 0,59.764757 16.882032,46.909168 33.764142,34.053579 65.360004,32.138902 l 0,-32.138902 15.488108,0 0,31.728644 q 14.404007,0.546871 27.878708,2.735263 13.47462,2.05136 26.32983,5.743962 l 0,23.933253 Q 122.20144,58.397091 108.57187,55.25164 95.097248,52.106119 80.848112,51.559038 l 0,58.397162 q 35.158068,4.78662 51.730438,17.09513 16.57228,12.30851 16.57228,33.64332 0,23.11267 -17.65646,36.51527 -17.5016,13.26585 -50.646258,15.31728 l 0,41.43871 z m -15.488108,-146.47147 0,-56.072154 q -17.966292,1.777924 -27.414092,9.026235 -9.44772,7.24838 -9.44772,19.283383 0,11.761498 8.673363,18.326045 8.828234,6.564551 28.188449,9.436491 z m 15.488108,26.25819 0,59.21768 q 19.669955,-2.32494 29.582375,-9.84682 10.06728,-7.52182 10.06728,-19.8304 0,-12.035 -9.60267,-19.14656 -9.44772,-7.11163 -30.046985,-10.3939 z"
       style="font-style:normal;font-variant:normal;font-weight:normal;font-stretch:normal;font-size:40px;line-height:125%;font-family:OpenSymbol;-inkscape-font-specification:OpenSymbol;letter-spacing:72.59999847px;word-spacing:0px;opacity:0.50700001;fill:#cccccc;fill-opacity:1;stroke:none;stroke-width:1px;stroke-linecap:butt;stroke-linejoin:miter;stroke-opacity:1;filter:url(#filter6109)"
       id="path4207"
       transform="matrix(0.8,0,0,-0.8,544.96056,740.11117)" /></g></svg>