<?xml version="1.0" encoding="UTF-8" standalone="no"?>
<!-- Generator: Adobe Illustrator 18.0.0, SVG Export Plug-In . SVG Version: 6.00 Build 0)  -->

<svg
   xmlns:dc="http://purl.org/dc/elements/1.1/"
   xmlns:cc="http://creativecommons.org/ns#"
   xmlns:rdf="http://www.w3.org/1999/02/22-rdf-syntax-ns#"
   xmlns:svg="http://www.w3.org/2000/svg"
   xmlns="http://www.w3.org/2000/svg"
   xmlns:sodipodi="http://sodipodi.sourceforge.net/DTD/sodipodi-0.dtd"
   xmlns:inkscape="http://www.inkscape.org/namespaces/inkscape"
   version="1.1"
   id="Capa_1"
   x="0px"
   y="0px"
   viewBox="0 0 216 216"
   style="enable-background:new 0 0 216 216;"
   xml:space="preserve"
   width="512px"
   height="512px"
   sodipodi:docname="outlook.svg"
   inkscape:version="0.92.1 r15371"><metadata
     id="metadata39"><rdf:RDF><cc:Work
         rdf:about=""><dc:format>image/svg+xml</dc:format><dc:type
           rdf:resource="http://purl.org/dc/dcmitype/StillImage" /><dc:title></dc:title></cc:Work></rdf:RDF></metadata><defs
     id="defs37" /><sodipodi:namedview
     pagecolor="#ffffff"
     bordercolor="#666666"
     borderopacity="1"
     objecttolerance="10"
     gridtolerance="10"
     guidetolerance="10"
     inkscape:pageopacity="0"
     inkscape:pageshadow="2"
     inkscape:window-width="1366"
     inkscape:window-height="688"
     id="namedview35"
     showgrid="false"
     inkscape:zoom="0.4609375"
     inkscape:cx="218.0339"
     inkscape:cy="251.66102"
     inkscape:window-x="0"
     inkscape:window-y="0"
     inkscape:window-maximized="1"
     inkscape:current-layer="Capa_1" /><path
     d="M -2.4318954,-1.070301 -0.90245811,217.97653 214.48336,221.02335 214.78443,-2.59974 c 0,0 -229.532385,-1.5893253 -217.2163254,1.529439 z M 122.8296,74.802689 h 38.2605 c 0.32984,0 0.13064,-0.02316 0.44751,0.02687 L 122.8296,107.65511 Z m -7.41213,82.044891 c 0,3.35213 -2.9037,5.84539 -6.17801,5.12734 L 53.816164,149.83385 c -2.40894,-0.52812 -4.1823,-2.66189 -4.1823,-5.12735 V 67.093146 c 0,-2.557186 1.96144,-4.742838 4.48249,-5.173668 l 55.273206,-9.480117 c 3.20667,-0.549424 6.02699,1.920669 6.02699,5.173668 v 99.234551 z m 50.95841,-72.271998 v 49.825278 c 0,3.41329 -1.87249,5.25891 -5.28578,5.25891 h -38.2605 v -20.26755 c 0,-0.0704 43.2572,-37.385868 43.2572,-37.385868 0.35857,0.78198 0.28908,1.651052 0.28908,2.56923 z m -75.172926,0.03243 c -6.92015,-3.615267 -14.96139,-2.571083 -21.01617,2.107825 -5.82964,4.50287 -9.46251,12.617289 -9.46251,20.515853 0,7.89856 3.63287,16.01299 9.46251,20.51586 2.68504,2.07447 5.7407,3.42811 8.92143,3.98495 4.01645,0.70322 8.24043,0.13527 12.09474,-1.87805 7.358403,-3.84227 11.909456,-12.19945 11.909456,-22.62276 0,-10.424234 -4.551053,-18.779561 -11.909456,-22.623678 z m -5.63322,34.604468 c -3.52632,2.31907 -8.33957,2.22179 -11.96688,-0.11859 -3.95623,-2.55348 -5.97048,-7.88188 -5.97048,-11.86127 0,-3.97939 2.01425,-9.307784 5.97048,-11.861264 1.65846,-1.0692 3.5606,-1.66866 5.47571,-1.78447 2.27923,-0.13805 4.57977,0.40766 6.4921,1.66402 3.34194,2.19584 5.07453,6.242864 5.07453,11.981714 -9.3e-4,5.73699 -1.73259,9.78402 -5.07546,11.97986 z"
     id="path2"
     inkscape:connector-curvature="0"
     style="fill:#006df0;fill-opacity:1;stroke-width:0.92651647"
     clip-path="none"
     sodipodi:nodetypes="ccccccsccccccssccsccssscscsccscccscccsccccc" /><g
     id="g4"
     transform="matrix(1.5197368,0,0,1.5197368,-63.175874,-57.852188)" /><g
     id="g6"
     transform="matrix(1.5197368,0,0,1.5197368,-63.175874,-57.852188)" /><g
     id="g8"
     transform="matrix(1.5197368,0,0,1.5197368,-63.175874,-57.852188)" /><g
     id="g10"
     transform="matrix(1.5197368,0,0,1.5197368,-63.175874,-57.852188)" /><g
     id="g12"
     transform="matrix(1.5197368,0,0,1.5197368,-63.175874,-57.852188)" /><g
     id="g14"
     transform="matrix(1.5197368,0,0,1.5197368,-63.175874,-57.852188)" /><g
     id="g16"
     transform="matrix(1.5197368,0,0,1.5197368,-63.175874,-57.852188)" /><g
     id="g18"
     transform="matrix(1.5197368,0,0,1.5197368,-63.175874,-57.852188)" /><g
     id="g20"
     transform="matrix(1.5197368,0,0,1.5197368,-63.175874,-57.852188)" /><g
     id="g22"
     transform="matrix(1.5197368,0,0,1.5197368,-63.175874,-57.852188)" /><g
     id="g24"
     transform="matrix(1.5197368,0,0,1.5197368,-63.175874,-57.852188)" /><g
     id="g26"
     transform="matrix(1.5197368,0,0,1.5197368,-63.175874,-57.852188)" /><g
     id="g28"
     transform="matrix(1.5197368,0,0,1.5197368,-63.175874,-57.852188)" /><g
     id="g30"
     transform="matrix(1.5197368,0,0,1.5197368,-63.175874,-57.852188)" /><g
     id="g32"
     transform="matrix(1.5197368,0,0,1.5197368,-63.175874,-57.852188)" /></svg>