<?xml version="1.0" encoding="UTF-8" standalone="no"?>
<!-- Generator: Adobe Illustrator 18.1.1, SVG Export Plug-In . SVG Version: 6.00 Build 0)  -->

<svg
   xmlns:dc="http://purl.org/dc/elements/1.1/"
   xmlns:cc="http://creativecommons.org/ns#"
   xmlns:rdf="http://www.w3.org/1999/02/22-rdf-syntax-ns#"
   xmlns:svg="http://www.w3.org/2000/svg"
   xmlns="http://www.w3.org/2000/svg"
   xmlns:sodipodi="http://sodipodi.sourceforge.net/DTD/sodipodi-0.dtd"
   xmlns:inkscape="http://www.inkscape.org/namespaces/inkscape"
   version="1.1"
   id="Capa_1"
   x="0px"
   y="0px"
   viewBox="0 0 16.376 16.376"
   style="enable-background:new 0 0 16.376 16.376;"
   xml:space="preserve"
   width="512px"
   height="512px"
   sodipodi:docname="outlook.svg"
   inkscape:version="0.92.1 r15371"><metadata
     id="metadata47"><rdf:RDF><cc:Work
         rdf:about=""><dc:format>image/svg+xml</dc:format><dc:type
           rdf:resource="http://purl.org/dc/dcmitype/StillImage" /><dc:title></dc:title></cc:Work></rdf:RDF></metadata><defs
     id="defs45" /><sodipodi:namedview
     pagecolor="#ffffff"
     bordercolor="#666666"
     borderopacity="1"
     objecttolerance="10"
     gridtolerance="10"
     guidetolerance="10"
     inkscape:pageopacity="0"
     inkscape:pageshadow="2"
     inkscape:window-width="1366"
     inkscape:window-height="688"
     id="namedview43"
     showgrid="false"
     inkscape:zoom="0.4609375"
     inkscape:cx="-15.186441"
     inkscape:cy="256"
     inkscape:window-x="0"
     inkscape:window-y="0"
     inkscape:window-maximized="1"
     inkscape:current-layer="Capa_1" /><g
     id="g10"
     style="fill:#ffffff"
     transform="matrix(0.66791731,0,0,0.66791731,2.6671716,2.8255816)"><g
       id="g8"
       style="fill:#ffffff"><path
         d="m 16.376,6.059 c 0,-0.3 -0.215,-0.544 -0.478,-0.544 h -4.697 v 1.087 h 3.717 L 12.48,8.611 11.201,7.563 v 1.379 l 1.003,0.813 c 0.163,0.132 0.392,0.132 0.555,-0.001 L 15.42,7.597 v 2.873 h -4.219 v 1.087 h 4.697 c 0.263,0 0.478,-0.243 0.478,-0.544 V 6.541 c 0,-0.013 -0.001,-0.025 -0.002,-0.038 0.001,-0.013 0.002,-0.026 0.002,-0.038 0,0 0,-0.406 0,-0.406 z"
         id="path2"
         style="fill:#ffffff"
         inkscape:connector-curvature="0" /><path
         d="m 5.115,10.433 c 0.686,0 1.126,-0.904 1.126,-2.253 0,-1.119 -0.325,-2.253 -1.126,-2.253 -0.847,0 -1.16,1.149 -1.16,2.253 0,1.287 0.406,2.253 1.16,2.253 z"
         id="path4"
         style="fill:#ffffff"
         inkscape:connector-curvature="0" /><path
         d="M 0,14.992 10.195,15.74 V 0.637 L 0,1.534 Z M 5.162,4.272 c 1.741,0 2.902,1.578 2.902,3.831 0,2.743 -1.475,4 -2.995,4 -1.66,0 -2.937,-1.44 -2.937,-3.861 10e-4,-2.423 1.208,-3.97 3.03,-3.97 z"
         id="path6"
         style="fill:#ffffff"
         inkscape:connector-curvature="0" /></g></g><g
     id="g12" /><g
     id="g14" /><g
     id="g16" /><g
     id="g18" /><g
     id="g20" /><g
     id="g22" /><g
     id="g24" /><g
     id="g26" /><g
     id="g28" /><g
     id="g30" /><g
     id="g32" /><g
     id="g34" /><g
     id="g36" /><g
     id="g38" /><g
     id="g40" /></svg>