<?xml version="1.0" encoding="UTF-8" standalone="no"?>
<!-- Generator: Adobe Illustrator 18.0.0, SVG Export Plug-In . SVG Version: 6.00 Build 0)  -->

<svg
   xmlns:dc="http://purl.org/dc/elements/1.1/"
   xmlns:cc="http://creativecommons.org/ns#"
   xmlns:rdf="http://www.w3.org/1999/02/22-rdf-syntax-ns#"
   xmlns:svg="http://www.w3.org/2000/svg"
   xmlns="http://www.w3.org/2000/svg"
   xmlns:sodipodi="http://sodipodi.sourceforge.net/DTD/sodipodi-0.dtd"
   xmlns:inkscape="http://www.inkscape.org/namespaces/inkscape"
   version="1.1"
   id="Capa_1"
   x="0px"
   y="0px"
   viewBox="0 0 216 216"
   style="enable-background:new 0 0 216 216;"
   xml:space="preserve"
   width="512px"
   height="512px"
   sodipodi:docname="outlook.svg"
   inkscape:version="0.92.1 r15371"><metadata
     id="metadata39"><rdf:RDF><cc:Work
         rdf:about=""><dc:format>image/svg+xml</dc:format><dc:type
           rdf:resource="http://purl.org/dc/dcmitype/StillImage" /><dc:title></dc:title></cc:Work></rdf:RDF></metadata><defs
     id="defs37"><clipPath
       clipPathUnits="userSpaceOnUse"
       id="clipPath850"><rect
         style="opacity:1;fill:#ffffff;fill-opacity:1;fill-rule:evenodd;stroke:none;stroke-width:0.37319437;stroke-linecap:round;stroke-linejoin:miter;stroke-miterlimit:4;stroke-dasharray:none;stroke-dashoffset:0;stroke-opacity:1"
         id="rect852"
         width="139.11865"
         height="131.7966"
         x="-78.711861"
         y="69.559319" /></clipPath></defs><sodipodi:namedview
     pagecolor="#ffffff"
     bordercolor="#666666"
     borderopacity="1"
     objecttolerance="10"
     gridtolerance="10"
     guidetolerance="10"
     inkscape:pageopacity="0"
     inkscape:pageshadow="2"
     inkscape:window-width="1366"
     inkscape:window-height="688"
     id="namedview35"
     showgrid="false"
     inkscape:zoom="0.4609375"
     inkscape:cx="218.0339"
     inkscape:cy="251.66102"
     inkscape:window-x="0"
     inkscape:window-y="0"
     inkscape:window-maximized="1"
     inkscape:current-layer="Capa_1" /><rect
     style="opacity:1;fill:#006df0;fill-opacity:1;fill-rule:evenodd;stroke:none;stroke-width:0.36855868;stroke-linecap:round;stroke-linejoin:miter;stroke-miterlimit:4;stroke-dasharray:none;stroke-dashoffset:0;stroke-opacity:1"
     id="rect846"
     width="211.42372"
     height="200.29614"
     x="3.5895145"
     y="10.304146" /><path
     d="m -12.813558,26.542373 c -59.647002,0 -108.000002,48.353 -108.000002,107.999997 0,59.647 48.353,108 108.000002,108 59.647,0 108,-48.353 108,-108 0,-59.646997 -48.353,-107.999997 -108,-107.999997 z m 15.6670002,73 H 44.148442 c 0.356,0 0.141,-0.025 0.483,0.029 L 2.8534422,135.00037 Z m -8,88.551997 c 0,3.618 -3.134,6.309 -6.6680002,5.534 l -59.819002,-13.104 c -2.6,-0.57 -4.514,-2.873 -4.514,-5.534 V 91.221373 c 0,-2.76 2.117,-5.119 4.838,-5.584 l 59.657002,-10.232 c 3.4610002,-0.593 6.5050002,2.073 6.5050002,5.584 V 188.09437 Z m 54.9999998,-78.004 v 53.777 c 0,3.684 -2.021,5.676 -5.705,5.676 H 2.8534422 v -21.875 c 0,-0.076 46.6879998,-40.351 46.6879998,-40.351 0.387,0.844 0.312,1.782 0.312,2.773 z m -81.135003,0.035 c -7.468999,-3.902 -16.147999,-2.775 -22.682999,2.275 -6.292,4.86 -10.213,13.61799 -10.213,22.143 0,8.525 3.921,17.283 10.213,22.143 2.898,2.239 6.196,3.7 9.629,4.301 4.335,0.759 8.894,0.146 13.053999,-2.027 7.942,-4.147 12.854003,-13.167 12.854003,-24.417 0,-11.251 -4.912003,-20.269 -12.854003,-24.418 z m -6.079999,37.349 c -3.806,2.503 -9.001,2.398 -12.916,-0.128 -4.27,-2.756 -6.444,-8.507 -6.444,-12.802 0,-4.295 2.174,-10.046 6.444,-12.802 1.79,-1.154 3.843,-1.801 5.91,-1.926 2.46,-0.149 4.943,0.44 7.007,1.796 3.607,2.37 5.477,6.73799 5.477,12.932 -0.001,6.192 -1.87,10.56 -5.478,12.93 z"
     id="path2"
     inkscape:connector-curvature="0"
     style="fill:#ffffff"
     clip-path="url(#clipPath850)"
     transform="matrix(1.5197368,0,0,1.5197368,123.21083,-95.407722)" /><g
     id="g4"
     transform="matrix(1.5197368,0,0,1.5197368,-63.175874,-57.852188)" /><g
     id="g6"
     transform="matrix(1.5197368,0,0,1.5197368,-63.175874,-57.852188)" /><g
     id="g8"
     transform="matrix(1.5197368,0,0,1.5197368,-63.175874,-57.852188)" /><g
     id="g10"
     transform="matrix(1.5197368,0,0,1.5197368,-63.175874,-57.852188)" /><g
     id="g12"
     transform="matrix(1.5197368,0,0,1.5197368,-63.175874,-57.852188)" /><g
     id="g14"
     transform="matrix(1.5197368,0,0,1.5197368,-63.175874,-57.852188)" /><g
     id="g16"
     transform="matrix(1.5197368,0,0,1.5197368,-63.175874,-57.852188)" /><g
     id="g18"
     transform="matrix(1.5197368,0,0,1.5197368,-63.175874,-57.852188)" /><g
     id="g20"
     transform="matrix(1.5197368,0,0,1.5197368,-63.175874,-57.852188)" /><g
     id="g22"
     transform="matrix(1.5197368,0,0,1.5197368,-63.175874,-57.852188)" /><g
     id="g24"
     transform="matrix(1.5197368,0,0,1.5197368,-63.175874,-57.852188)" /><g
     id="g26"
     transform="matrix(1.5197368,0,0,1.5197368,-63.175874,-57.852188)" /><g
     id="g28"
     transform="matrix(1.5197368,0,0,1.5197368,-63.175874,-57.852188)" /><g
     id="g30"
     transform="matrix(1.5197368,0,0,1.5197368,-63.175874,-57.852188)" /><g
     id="g32"
     transform="matrix(1.5197368,0,0,1.5197368,-63.175874,-57.852188)" /></svg>