<?xml version="1.0" encoding="UTF-8" standalone="no"?>
<!-- Generator: Adobe Illustrator 19.0.0, SVG Export Plug-In . SVG Version: 6.00 Build 0)  -->

<svg
   xmlns:dc="http://purl.org/dc/elements/1.1/"
   xmlns:cc="http://creativecommons.org/ns#"
   xmlns:rdf="http://www.w3.org/1999/02/22-rdf-syntax-ns#"
   xmlns:svg="http://www.w3.org/2000/svg"
   xmlns="http://www.w3.org/2000/svg"
   xmlns:sodipodi="http://sodipodi.sourceforge.net/DTD/sodipodi-0.dtd"
   xmlns:inkscape="http://www.inkscape.org/namespaces/inkscape"
   version="1.1"
   id="Layer_1"
   x="0px"
   y="0px"
   viewBox="0 0 291.319 291.319"
   style="enable-background:new 0 0 291.319 291.319;"
   xml:space="preserve"
   sodipodi:docname="yahoo.svg"
   inkscape:version="0.92.1 r15371"><metadata
     id="metadata43"><rdf:RDF><cc:Work
         rdf:about=""><dc:format>image/svg+xml</dc:format><dc:type
           rdf:resource="http://purl.org/dc/dcmitype/StillImage" /><dc:title></dc:title></cc:Work></rdf:RDF></metadata><defs
     id="defs41" /><sodipodi:namedview
     pagecolor="#ffffff"
     bordercolor="#666666"
     borderopacity="1"
     objecttolerance="10"
     gridtolerance="10"
     guidetolerance="10"
     inkscape:pageopacity="0"
     inkscape:pageshadow="2"
     inkscape:window-width="1366"
     inkscape:window-height="688"
     id="namedview39"
     showgrid="false"
     inkscape:zoom="0.81010851"
     inkscape:cx="-146.2767"
     inkscape:cy="143.1907"
     inkscape:window-x="0"
     inkscape:window-y="0"
     inkscape:window-maximized="1"
     inkscape:current-layer="Layer_1" /><path
     inkscape:connector-curvature="0"
     id="path4"
     d="m 236.97375,110.46421 0.19815,-0.0345 6.16805,-6.86603 -0.30297,-0.023 0.65196,-1.02396 h -86.41027 l 3.32884,11.82349 h 23.57793 l -39.68519,36.71685 c -8.09964,-11.81199 -27.08063,-38.96292 -40.32436,-59.329621 h 24.6134 v -8.379608 l 0.33749,-2.408417 -0.33749,-0.04602 v -0.97794 H 35.349367 v 11.811985 h 29.221865 c 11.346657,9.367751 60.540248,69.093671 62.332488,74.796411 0.72099,5.34224 1.74623,36.86898 -0.372,39.24288 -2.54903,3.66631 -29.164341,1.68743 -33.854621,2.03641 l -0.17513,11.57933 c 8.564961,0.25567 34.261131,-0.0115 42.932201,-0.0115 17.08392,0 47.00505,-0.44232 51.21721,-0.10483 l 0.52413,-10.96315 -34.38897,-0.51262 c -0.72099,-4.96896 -1.5123,-36.33335 -0.79131,-39.75422 3.24702,-9.92641 56.01232,-51.00884 61.43637,-52.55565 l 5.10958,-1.1518 h 15.94362 c -0.002,-0.001 2.48895,-3.86446 2.48895,-3.86446 z m -12.89474,81.94115 14.94267,1.14028 17.42139,-63.89079 c -2.90953,-0.10483 -29.3382,-2.46723 -32.77186,-3.10768 z m -2.58356,10.24216 0.0818,15.60613 7.56401,0.62895 8.16996,0.57014 2.39691,-15.26864 -8.61226,-0.39629 c 0.002,0 -9.60044,-1.14029 -9.60044,-1.14029 z"
     style="fill:#ffffff;fill-opacity:1;stroke-width:1.27835298" /><g
     id="g8" /><g
     id="g10" /><g
     id="g12" /><g
     id="g14" /><g
     id="g16" /><g
     id="g18" /><g
     id="g20" /><g
     id="g22" /><g
     id="g24" /><g
     id="g26" /><g
     id="g28" /><g
     id="g30" /><g
     id="g32" /><g
     id="g34" /><g
     id="g36" /></svg>